<?xml version="1.0" encoding="UTF-8"?>
<svg version="1.1" xmlns="http://www.w3.org/2000/svg" xmlns:xlink="http://www.w3.org/1999/xlink">
<defs>
<clipPath id="clip0"><path fill="#fff" d="M0 0h32v32H0z"/></clipPath>
<clipPath clipPathUnits="userSpaceOnUse" id="a"><path d="M-518-143h1700.79v992.13H-518z"/></clipPath><clipPath clipPathUnits="userSpaceOnUse" id="b"><path d="M-518-143h1700.79v992.13H-518z"/></clipPath><clipPath clipPathUnits="userSpaceOnUse" id="c"><path d="M-518-143h1700.79v992.13H-518z"/></clipPath><clipPath clipPathUnits="userSpaceOnUse" id="d"><path d="M-518-143h1700.79v992.13H-518z"/></clipPath>
<clipPath id="clip0"><path fill="#fff" d="M0 0h32v32H0z"/></clipPath>
<clipPath id="clip0"><path fill="#fff" d="M0 0h32v32H0z"/></clipPath>
<clipPath id="clip0"><path fill="#fff" d="M0 0h32v32H0z"/></clipPath>
<clipPath id="clip0"><path fill="#fff" d="M0 0h32v32H0z"/></clipPath>
<clipPath id="clip0"><path fill="#fff" transform="translate(0 .78)" d="M0 0h16v16H0z"/></clipPath>
<style></style>
<clipPath id="clip0"><path fill="currentColor" d="M0 0h188v63.193H0z"/></clipPath>
</defs>
<symbol id="i-b-arrow" viewBox="0 0 25 16" fill="none" xmlns="http://www.w3.org/2000/svg"><path d="M0 8h24m0 0c-3.611-.711-10.833-3.307-10.833-8M24 8c-3.611.711-10.833 3.307-10.833 8" stroke="currentColor"/></symbol>
<symbol id="i-bonus-arrow" viewBox="0 0 45 24" fill="none" xmlns="http://www.w3.org/2000/svg"><path d="M1 2l21.5 19L43 2" stroke="#969696" stroke-width="3"/></symbol>
<symbol id="i-icon-app-store" viewBox="0 0 216 64" fill="none" xmlns="http://www.w3.org/2000/svg"><path d="M208 1.28A6.72 6.72 0 01214.72 8v48a6.72 6.72 0 01-6.72 6.72H8A6.72 6.72 0 011.28 56V8A6.72 6.72 0 018 1.28h200zM208 0H8a8 8 0 00-8 8v48a8 8 0 008 8h200a8 8 0 008-8V8a8.001 8.001 0 00-8-8z" fill="currentColor"/><path d="M51.38 30.9c-.044-4.913 4.024-7.303 4.21-7.414-2.304-3.359-5.874-3.818-7.129-3.854-2.998-.316-5.907 1.794-7.435 1.794-1.558 0-3.91-1.764-6.445-1.712-3.263.05-6.315 1.94-7.989 4.872-3.454 5.98-.878 14.77 2.432 19.604 1.656 2.367 3.59 5.01 6.122 4.918 2.478-.102 3.403-1.58 6.392-1.58 2.963 0 3.832 1.58 6.414 1.52 2.659-.042 4.333-2.378 5.93-4.767 1.913-2.713 2.682-5.386 2.712-5.523-.062-.021-5.163-1.968-5.213-7.857zM46.502 16.452c1.333-1.667 2.244-3.934 1.991-6.234-1.928.085-4.34 1.334-5.729 2.964-1.229 1.436-2.326 3.79-2.043 6.003 2.167.162 4.39-1.093 5.781-2.733zM87.232 48.768h-3.463l-1.896-5.96h-6.592l-1.806 5.96h-3.371l6.53-20.288h4.035l6.563 20.288zm-5.93-8.46l-1.716-5.297c-.181-.542-.521-1.816-1.023-3.822h-.06c-.2.863-.522 2.137-.964 3.822l-1.685 5.297h5.447zM104.027 41.273c0 2.488-.673 4.455-2.017 5.898-1.205 1.286-2.7 1.927-4.485 1.927-1.927 0-3.312-.692-4.155-2.076h-.06v7.706h-3.25V38.955c0-1.565-.042-3.17-.121-4.816h2.858l.182 2.318h.06c1.084-1.747 2.73-2.619 4.937-2.619 1.726 0 3.166.682 4.319 2.046 1.155 1.366 1.732 3.162 1.732 5.39zm-3.312.12c0-1.425-.32-2.599-.963-3.523-.703-.963-1.647-1.445-2.83-1.445-.801 0-1.53.269-2.181.798-.653.533-1.08 1.23-1.28 2.093-.1.402-.15.731-.15.99v2.44c0 1.064.326 1.962.979 2.695.652.733 1.5 1.1 2.542 1.1 1.225 0 2.177-.473 2.859-1.415.683-.944 1.024-2.188 1.024-3.734zM120.853 41.273c0 2.488-.673 4.455-2.019 5.898-1.203 1.286-2.698 1.927-4.483 1.927-1.927 0-3.311-.692-4.153-2.076h-.061v7.706h-3.25V38.955c0-1.565-.041-3.17-.121-4.816h2.859l.181 2.318h.061c1.083-1.747 2.727-2.619 4.936-2.619 1.725 0 3.165.682 4.321 2.046 1.151 1.366 1.729 3.162 1.729 5.39zm-3.312.12c0-1.425-.321-2.599-.965-3.523-.702-.963-1.643-1.445-2.827-1.445-.804 0-1.531.269-2.184.798-.652.533-1.077 1.23-1.277 2.093-.099.402-.151.731-.151.99v2.44c0 1.064.326 1.962.976 2.695.652.732 1.5 1.1 2.546 1.1 1.224 0 2.177-.473 2.858-1.415.683-.944 1.024-2.188 1.024-3.734zM139.665 43.078c0 1.726-.599 3.13-1.802 4.214-1.322 1.184-3.162 1.776-5.526 1.776-2.183 0-3.933-.42-5.258-1.264l.753-2.709c1.427.863 2.993 1.296 4.698 1.296 1.225 0 2.177-.277 2.862-.83.681-.551 1.021-1.292 1.021-2.216 0-.823-.28-1.517-.843-2.08-.559-.562-1.494-1.085-2.799-1.568-3.552-1.325-5.326-3.266-5.326-5.818 0-1.667.622-3.035 1.867-4.099 1.241-1.066 2.897-1.598 4.967-1.598 1.846 0 3.38.322 4.604.964l-.813 2.65c-1.143-.622-2.436-.933-3.882-.933-1.144 0-2.037.282-2.677.843-.542.501-.813 1.113-.813 1.837 0 .801.309 1.465.931 1.986.542.482 1.525 1.003 2.952 1.566 1.745.702 3.028 1.524 3.852 2.466.822.94 1.232 2.115 1.232 3.517zM150.411 36.578h-3.582v7.102c0 1.807.631 2.71 1.896 2.71.581 0 1.063-.05 1.444-.151l.09 2.468c-.641.239-1.484.36-2.528.36-1.284 0-2.287-.392-3.011-1.174-.721-.784-1.084-2.098-1.084-3.944v-7.374h-2.134v-2.44h2.134v-2.678l3.193-.963v3.642h3.582v2.442zM166.575 41.333c0 2.248-.643 4.095-1.927 5.538-1.346 1.487-3.133 2.228-5.36 2.228-2.146 0-3.855-.712-5.13-2.136-1.274-1.424-1.911-3.221-1.911-5.388 0-2.267.655-4.123 1.971-5.567 1.312-1.445 3.084-2.168 5.311-2.168 2.147 0 3.874.712 5.177 2.137 1.247 1.383 1.869 3.168 1.869 5.356zm-3.372.105c0-1.35-.288-2.506-.872-3.471-.681-1.168-1.656-1.75-2.918-1.75-1.306 0-2.299.584-2.98 1.75-.584.966-.872 2.142-.872 3.532 0 1.35.288 2.506.872 3.47.703 1.167 1.684 1.75 2.951 1.75 1.241 0 2.215-.595 2.918-1.78.599-.984.901-2.153.901-3.501zM177.14 36.997a5.656 5.656 0 00-1.025-.09c-1.143 0-2.027.432-2.649 1.296-.541.762-.813 1.726-.813 2.889v7.676h-3.249l.031-10.022c0-1.687-.041-3.222-.122-4.606h2.831l.119 2.8h.09c.343-.963.884-1.737 1.625-2.318.724-.523 1.506-.784 2.349-.784.3 0 .572.022.813.06v3.099zM191.676 40.761c0 .582-.038 1.073-.119 1.474h-9.751c.038 1.446.509 2.55 1.415 3.313.822.681 1.884 1.023 3.189 1.023 1.444 0 2.761-.23 3.945-.692l.51 2.256c-1.385.604-3.019.904-4.905.904-2.268 0-4.049-.668-5.345-2.002-1.292-1.334-1.94-3.125-1.94-5.372 0-2.206.602-4.043 1.808-5.508 1.262-1.564 2.968-2.346 5.115-2.346 2.108 0 3.704.782 4.788 2.346.858 1.243 1.29 2.78 1.29 4.604zm-3.1-.843c.022-.963-.19-1.796-.631-2.499-.562-.904-1.427-1.355-2.59-1.355-1.062 0-1.927.44-2.587 1.325-.541.703-.863 1.546-.962 2.527h6.77v.002zM81.756 23.522h-1.69V21H73.31v2.522h-1.719l-.056-3.945h.824c.409-.394.735-.967.98-1.719.243-.756.4-1.61.471-2.564l.268-4.55h6.467v8.833h1.303l-.092 3.945zm-7.382-3.945h4.395V12.18h-2.993l-.17 2.889c-.126 1.93-.537 3.433-1.232 4.508zM83.421 17.119c0-.747.148-1.419.444-2.015.296-.601.712-1.061 1.247-1.38.535-.325 1.15-.487 1.846-.487 1.028 0 1.862.331 2.5.993.644.663.991 1.54 1.043 2.635l.007.402c0 .75-.145 1.422-.437 2.014-.286.592-.7 1.05-1.24 1.374-.535.324-1.155.486-1.86.486-1.075 0-1.936-.357-2.584-1.07-.644-.72-.966-1.675-.966-2.868v-.084zm1.712.148c0 .784.162 1.399.486 1.845.324.442.775.662 1.353.662s1.026-.225 1.345-.676c.324-.45.486-1.11.486-1.98 0-.77-.166-1.38-.5-1.83-.328-.452-.777-.677-1.345-.677-.56 0-1.003.223-1.332.669-.328.442-.493 1.104-.493 1.987zM95.808 19.774c.428 0 .782-.124 1.064-.373.282-.249.432-.557.45-.923h1.614a2.533 2.533 0 01-.444 1.331 2.922 2.922 0 01-1.127.973c-.474.24-.986.359-1.536.359-1.066 0-1.911-.345-2.536-1.036-.624-.69-.937-1.643-.937-2.86v-.176c0-1.16.31-2.087.93-2.782.62-.7 1.466-1.05 2.536-1.05.907 0 1.644.265 2.212.796.573.526.874 1.219.902 2.078h-1.613c-.019-.437-.17-.796-.451-1.078-.277-.281-.632-.422-1.064-.422-.554 0-.981.202-1.282.606-.3.399-.453 1.007-.458 1.824v.275c0 .826.148 1.444.444 1.853.3.403.733.605 1.296.605zM106.948 14.738h-2.472V21h-1.712v-6.262h-2.445v-1.36h6.629v1.36zM111.565 18.549l1.55-5.17h1.824l-3.029 8.776c-.465 1.282-1.254 1.923-2.367 1.923-.249 0-.523-.042-.824-.126v-1.325l.324.021c.432 0 .756-.08.972-.24.221-.154.395-.417.521-.788l.247-.655-2.677-7.587h1.846l1.613 5.17zM123.113 21h-1.711v-6.241h-2.973V21h-1.712v-7.622h6.396V21zM132.112 21H130.4v-3.078h-2.966V21h-1.711v-7.622h1.711v3.177h2.966v-3.177h1.712V21zM134.341 17.119c0-.747.148-1.419.443-2.015.296-.601.712-1.061 1.247-1.38.536-.325 1.151-.487 1.846-.487 1.028 0 1.862.331 2.501.993.643.663.99 1.54 1.042 2.635l.007.402c0 .75-.145 1.422-.437 2.014a3.169 3.169 0 01-1.239 1.374c-.536.324-1.156.486-1.86.486-1.075 0-1.937-.357-2.585-1.07-.644-.72-.965-1.675-.965-2.868v-.084zm1.711.148c0 .784.162 1.399.486 1.845.324.442.775.662 1.353.662s1.026-.225 1.345-.676c.324-.45.486-1.11.486-1.98 0-.77-.166-1.38-.5-1.83-.328-.452-.777-.677-1.345-.677a1.57 1.57 0 00-1.332.669c-.328.442-.493 1.104-.493 1.987zM148.04 21v-7.622h3.093c1.042 0 1.836.183 2.381.55.545.361.817.882.817 1.563 0 .353-.11.67-.331.951-.216.277-.538.491-.965.641.498.104.892.313 1.183.627.291.315.437.686.437 1.113 0 .71-.263 1.25-.789 1.62-.521.371-1.273.557-2.254.557h-3.572zm1.712-3.247v1.895h1.874c.878 0 1.317-.315 1.317-.944 0-.634-.446-.951-1.338-.951h-1.853zm0-1.226h1.409c.972 0 1.458-.287 1.458-.86 0-.6-.46-.91-1.38-.93h-1.487v1.79z" fill="currentColor"/></symbol>
<symbol id="i-icon-arrow-big" viewBox="0 0 25 18" fill="none" xmlns="http://www.w3.org/2000/svg"><path d="M25 9H1.47m0 0l7.354-7.5M1.47 9l7.353 7.5" stroke="currentColor" stroke-width="2"/></symbol>
<symbol id="i-icon-arrow-more" viewBox="0 0 17 12" fill="none" xmlns="http://www.w3.org/2000/svg"><path d="M0 6h15.059m0 0l-4.706-5m4.706 5l-4.706 5" stroke="currentColor" stroke-width="2"/></symbol>
<symbol id="i-icon-arrow-slider-left" viewBox="0 0 23 32" fill="none" xmlns="http://www.w3.org/2000/svg"><path d="M22 1L2 16l20 15" stroke="currentColor" stroke-width="2"/></symbol>
<symbol id="i-icon-arrow-slider-right" viewBox="0 0 23 32" fill="none" xmlns="http://www.w3.org/2000/svg"><path d="M1 1l20 15L1 31" stroke="currentColor" stroke-width="2"/></symbol>
<symbol id="i-icon-arrow-way" viewBox="0 0 15.698 8.706" xmlns="http://www.w3.org/2000/svg"><path fill="currentColor" d="M11.354 0l-.708.706 3.14 3.147H0v1h13.786L10.646 8l.708.706 4.344-4.353z"/></symbol>
<symbol id="i-icon-arrow" viewBox="0 0 17 12" fill="none" xmlns="http://www.w3.org/2000/svg"><path d="M0 6h15.059m0 0l-4.706-5m4.706 5l-4.706 5" stroke="currentColor" stroke-width="2"/></symbol>
<symbol id="i-icon-bag-fill" viewBox="0 0 32 32" fill="none" xmlns="http://www.w3.org/2000/svg"><path d="M26.105 8H5.895S3.358 23.778 3.123 25.89A1 1 0 004.117 27h23.766a1 1 0 00.994-1.11C28.642 23.778 26.105 8 26.105 8z" fill="currentColor"/><path d="M11 8a5 5 0 0110 0" stroke="currentColor" stroke-width="2" stroke-linecap="round" stroke-linejoin="round"/></symbol>
<symbol id="i-icon-bag" viewBox="0 0 33 32" fill="none" xmlns="http://www.w3.org/2000/svg"><path d="M26.175 8H5.965S3.428 23.778 3.194 25.89A1 1 0 004.188 27h23.765a1 1 0 00.994-1.11C28.712 23.778 26.175 8 26.175 8zM11.07 7a5 5 0 0110 0" stroke="currentColor" stroke-width="2" stroke-linecap="round" stroke-linejoin="round"/></symbol>
<symbol id="i-icon-basket-delete" viewBox="0 0 26 26" fill="none" xmlns="http://www.w3.org/2000/svg"><path d="M23.4 6.987H2.6" stroke="currentColor" stroke-width="2" stroke-linejoin="round"/><path d="M10.563 11.863v6.5M15.438 11.863v6.5M20.8 6.5v15.6H5.2V6.5" stroke="currentColor" stroke-width="2"/><path d="M17.063 6.825v-1.95c0-.517-.172-1.013-.476-1.38-.305-.365-.719-.57-1.15-.57h-4.874c-.431 0-.845.205-1.15.57a2.164 2.164 0 00-.476 1.38v1.95" stroke="currentColor" stroke-width="2" stroke-linejoin="round"/></symbol>
<symbol id="i-icon-basket-minus" viewBox="0 0 7 7" fill="none" xmlns="http://www.w3.org/2000/svg"><path d="M0 3.5h7" stroke="currentColor" stroke-width="2"/></symbol>
<symbol id="i-icon-basket-plus" viewBox="0 0 7 7" fill="none" xmlns="http://www.w3.org/2000/svg"><path d="M0 3.5h7M3.5 0v7" stroke="currentColor" stroke-width="2"/></symbol>
<symbol id="i-icon-bonus-1" viewBox="0 0 89 80" fill="none" xmlns="http://www.w3.org/2000/svg" xmlns:xlink="http://www.w3.org/1999/xlink"><path fill="url(#pattern0)" d="M0 0h89v80H0z"/></symbol>
<symbol id="i-icon-bonus-2" viewBox="0 0 80 83" fill="none" xmlns="http://www.w3.org/2000/svg" xmlns:xlink="http://www.w3.org/1999/xlink"><path fill="url(#pattern0)" d="M0 0h80v83H0z"/></symbol>
<symbol id="i-icon-bonus-3" viewBox="0 0 80 84" fill="none" xmlns="http://www.w3.org/2000/svg" xmlns:xlink="http://www.w3.org/1999/xlink"><path fill="url(#pattern0)" d="M0 0h80v84H0z"/></symbol>
<symbol id="i-icon-catalog-category" viewBox="0 0 32 32" fill="none" xmlns="http://www.w3.org/2000/svg"><path d="M27 8H5M27 16h-9" stroke="currentColor" stroke-width="2" stroke-linejoin="round"/><path d="M15.114 17.432a4.682 4.682 0 11-9.364 0 4.682 4.682 0 019.364 0zM17.25 24.25l-2.842-2.841" stroke="currentColor" stroke-width="2"/><path d="M27 24h-7" stroke="currentColor" stroke-width="2" stroke-linejoin="round"/></symbol>
<symbol id="i-icon-catalog-cols" viewBox="0 0 26 26" fill="none" xmlns="http://www.w3.org/2000/svg"><path stroke="#383838" d="M5.375 5.375h15.25v15.25H5.375zM5 13h16M13 5.5v15"/></symbol>
<symbol id="i-icon-catalog-column" viewBox="0 0 18 18" fill="none" xmlns="http://www.w3.org/2000/svg"><path stroke="#B1B1B1" d="M1.375 1.375h15.25v15.25H1.375z"/></symbol>
<symbol id="i-icon-catalog-filter" viewBox="0 0 32 32" fill="none" xmlns="http://www.w3.org/2000/svg"><path d="M5 8h22" stroke="currentColor" stroke-width="2" stroke-linejoin="round"/><circle cx="20" cy="8" r="2" fill="#fff" stroke="currentColor" stroke-width="2"/><path d="M5 15.999h22" stroke="currentColor" stroke-width="2" stroke-linejoin="round"/><circle cx="12" cy="16" r="2" fill="#fff" stroke="currentColor" stroke-width="2"/><path d="M5 24h22" stroke="currentColor" stroke-width="2" stroke-linejoin="round"/></symbol>
<symbol id="i-icon-close-thing" viewBox="0 0 26 26" fill="none" xmlns="http://www.w3.org/2000/svg"><path d="M20.313 5.688L5.688 20.313M20.313 20.313L5.688 5.688" stroke="currentColor" stroke-linejoin="round"/></symbol>
<symbol id="i-icon-close" viewBox="0 0 16 16" fill="none" xmlns="http://www.w3.org/2000/svg"><path d="M12.5 3.5l-9 9M12.5 12.5l-9-9" stroke="currentColor" stroke-width="2" stroke-linejoin="round"/></symbol>
<symbol id="i-icon-delivery-courier" viewBox="0 0 27 25" fill="none" xmlns="http://www.w3.org/2000/svg"><path d="M1.632 5.053v-1a1 1 0 00-1 1h1zM24.667 10.1l.777-.63a1.014 1.014 0 00-.08-.088l-.697.718zm.683 6.31v1h1v-1h-1zm-23.718 0h-1v1h1v-1zm23.718-5.468h1a1 1 0 00-.224-.63l-.776.63zm-5.89-5.89l.696-.718a1 1 0 00-.696-.282v1zM18.198 10.1l-.703.711a1 1 0 00.703.29v-1zm7.152 5.31H1.632v2H25.35v-2zm-22.718 1V5.054h-2v11.359h2zm21.259-5.68l.682.842 1.553-1.26-.682-.842-1.553 1.26zm.459.212v5.469h2v-5.47h-2zM18.764 5.77l5.207 5.048 1.392-1.436-5.207-5.048-1.392 1.436zm-17.132.282h11.462v-2H1.632v2zm11.462 0h6.366v-2h-6.366v2zm-.703-.29l5.104 5.05L18.9 9.39l-5.103-5.048-1.407 1.422zm5.807 5.338h6.47v-2h-6.47v2z" fill="currentColor"/><circle cx="7.101" cy="16.412" r="1.945" stroke="currentColor" stroke-width="2" stroke-linejoin="round"/><circle cx="19.881" cy="16.412" r="1.945" stroke="currentColor" stroke-width="2" stroke-linejoin="round"/></symbol>
<symbol id="i-icon-delivery-pin" xmlns="http://www.w3.org/2000/svg" viewBox="0 0 512 512"><g fill="currentColor"><path d="M256 512l-11.2-12.6c-7-7-171.1-200.6-171.1-317C73.6 81.4 155 0 256 0s182.4 81.4 182.4 182.4c0 116.4-164.1 310-171.1 318.4L256 512zm0-483.9c-85.6 0-154.3 68.7-154.3 154.3 0 89.8 117.8 241.3 154.3 286.2 36.5-44.9 154.3-196.4 154.3-286.2 0-85.6-68.7-154.3-154.3-154.3z"/><path d="M256 252.5c-39.3 0-70.1-30.9-70.1-70.1s30.9-70.1 70.1-70.1 70.1 30.9 70.1 70.1-30.8 70.1-70.1 70.1zm0-112.2c-23.8 0-42.1 18.2-42.1 42.1s18.2 42.1 42.1 42.1 42.1-18.2 42.1-42.1-18.3-42.1-42.1-42.1z"/></g></symbol>
<symbol id="i-icon-delivery-post" viewBox="0 0 27 29" fill="none" xmlns="http://www.w3.org/2000/svg"><path d="M1 6.167l12.5 4.166M1 6.167v16.126c0 .323.207.61.513.711L13.5 27M1 6.167l6.25-2.084m6.25 6.25V27m0-16.667l6.25-2.083M26 6.167v16.126a.75.75 0 01-.513.711L13.5 27M26 6.167L13.5 2 7.25 4.083M26 6.167L19.75 8.25m0 0L7.25 4.083" stroke="currentColor" stroke-width="2"/></symbol>
<symbol id="i-icon-delivery-store" viewBox="0 0 15 23" fill="none" xmlns="http://www.w3.org/2000/svg"><mask id="a" fill="#fff"><path fill-rule="evenodd" clip-rule="evenodd" d="M7.5 23S15 13.964 15 7.393C15 3.31 11.642 0 7.5 0 3.358 0 0 3.31 0 7.393 0 13.964 7.5 23 7.5 23zm0-13a1.5 1.5 0 100-3 1.5 1.5 0 000 3z"/></mask><path d="M7.5 23l-1.539 1.277L7.5 26.131l1.539-1.854L7.5 23zM13 7.393c0 2.684-1.596 6.168-3.458 9.228a49.77 49.77 0 01-3.29 4.739 27.515 27.515 0 01-.277.345l-.012.015a.042.042 0 01-.002.003L7.5 23a427.679 427.679 0 001.54 1.277v-.001l.002-.002.006-.008a3.636 3.636 0 00.09-.11 47.806 47.806 0 001.141-1.48 53.775 53.775 0 002.68-3.975C14.845 15.6 17 11.28 17 7.393h-4zM7.5 2C10.565 2 13 4.441 13 7.393h4C17 2.178 12.72-2 7.5-2v4zM2 7.393C2 4.44 4.435 2 7.5 2v-4C2.28-2-2 2.178-2 7.393h4zM7.5 23l1.54-1.277-.003-.003-.012-.015-.055-.067-.222-.278a49.77 49.77 0 01-3.29-4.74C3.596 13.562 2 10.078 2 7.394h-4C-2 11.28.154 15.6 2.042 18.7a53.76 53.76 0 003.566 5.137 30.931 30.931 0 00.344.428l.006.008.002.002c0 .001.001.001 1.54-1.276zM7 8.5a.5.5 0 01.5-.5v4A3.5 3.5 0 0011 8.5H7zm.5.5a.5.5 0 01-.5-.5h4A3.5 3.5 0 007.5 5v4zm.5-.5a.5.5 0 01-.5.5V5A3.5 3.5 0 004 8.5h4zM7.5 8a.5.5 0 01.5.5H4A3.5 3.5 0 007.5 12V8z" fill="currentColor" mask="url(#a)"/></symbol>
<symbol id="i-icon-dropdown-small" viewBox="0 0 10 6" fill="none" xmlns="http://www.w3.org/2000/svg"><path d="M1 1l4 4 4-4" stroke="currentColor"/></symbol>
<symbol id="i-icon-dropdown" viewBox="0 0 7 5" fill="none" xmlns="http://www.w3.org/2000/svg"><path d="M1.402 0L0 1.426 3.5 4.97 7 1.426 5.598 0 3.5 2.117 1.402 0z" fill="currentColor"/></symbol>
<symbol id="i-icon-edit" viewBox="0 0 17 17" fill="none" xmlns="http://www.w3.org/2000/svg"><path d="M10.04 3.51l3.346 3.347" stroke="currentColor" stroke-width="2"/><path clip-rule="evenodd" d="M11.137 2.414a2 2 0 012.828 0l.518.519a2 2 0 010 2.828l-8.877 8.877a2 2 0 01-1.414.586H1.674v-2.519a2 2 0 01.586-1.414l8.877-8.877z" stroke="currentColor" stroke-width="2"/><path d="M15.896 15.224H8.785" stroke="currentColor" stroke-width="2"/></symbol>
<symbol id="i-icon-facebook" viewBox="0 0 32 32" fill="none" xmlns="http://www.w3.org/2000/svg"><g clip-path="url(#clip0)" fill="currentColor"><path d="M21.33 5.313h2.92V.225C23.748.156 22.015 0 19.996 0c-4.212 0-7.098 2.65-7.098 7.519V12H8.25v5.688h4.648V32h5.698V17.69h4.46L23.764 12h-5.17V8.083c.002-1.644.445-2.77 2.735-2.77z"/></g></symbol>
<symbol id="i-icon-favorite-bold" viewBox="0 0 32 32" fill="none" xmlns="http://www.w3.org/2000/svg"><path d="M26.836 16.356l.707.707-.707-.707zm.5-9.199l-.743.669.744-.669zm-9.432-.253l-.707-.707.707.707zM16 8.808l-.707.707.707.707.707-.707L16 8.808zm-1.644-1.644l-.707.707.707-.707zm-9.199-.5l.669.743-.669-.744zm-.253 9.432l-.707.707.707-.707zM16 26.778l-.69.725.69.655.689-.655-.689-.725zm11.543-9.715c2.813-2.813 3.295-7.512.537-10.575l-1.486 1.339c1.952 2.168 1.7 5.658-.465 7.822l1.414 1.414zm.538-10.574a7.502 7.502 0 00-2.434-1.797l-.839 1.816a5.5 5.5 0 011.785 1.318l1.488-1.337zm-2.434-1.797a7.5 7.5 0 00-2.945-.69l-.054 2a5.5 5.5 0 012.16.506l.84-1.816zm-2.945-.69a7.5 7.5 0 00-2.979.53l.74 1.859a5.5 5.5 0 012.185-.389l.054-2zm-2.979.53a7.5 7.5 0 00-2.526 1.665L18.61 7.61a5.5 5.5 0 011.853-1.22l-.74-1.858zm-2.526 1.665L15.293 8.1l1.414 1.414 1.904-1.904-1.414-1.414zm-.49 1.904l-1.644-1.644L13.65 7.87l1.644 1.644L16.707 8.1zm-1.644-1.644C12.25 3.644 7.551 3.162 4.488 5.92l1.339 1.486c2.168-1.952 5.658-1.7 7.822.465l1.414-1.414zM4.49 5.919a7.5 7.5 0 00-1.797 2.434l1.816.839a5.5 5.5 0 011.318-1.785L4.489 5.92zM2.692 8.353a7.5 7.5 0 00-.69 2.945l2 .054a5.5 5.5 0 01.506-2.16l-1.816-.84zm-.69 2.945a7.5 7.5 0 00.531 2.979l1.858-.74a5.5 5.5 0 01-.389-2.185l-2-.054zm.531 2.979a7.5 7.5 0 001.664 2.526L5.61 15.39a5.5 5.5 0 01-1.22-1.853l-1.858.74zM16 26.778l.689.725.001-.001.005-.005.018-.017.07-.067.27-.256a2031.996 2031.996 0 004.12-3.93c2.394-2.29 5.112-4.905 6.37-6.164L26.13 15.65c-1.24 1.24-3.94 3.837-6.34 6.133a1995.318 1995.318 0 01-4.115 3.926l-.269.256-.07.067-.018.017-.004.004h-.002v.001l.689.725zM4.197 16.803c1.285 1.286 4.068 3.964 6.52 6.313a2095.598 2095.598 0 004.221 4.032l.276.262.072.07.018.017.005.004.001.001.69-.724.69-.724h-.001l-.001-.002-.005-.004-.018-.018-.072-.068-.275-.262a2129.995 2129.995 0 01-4.217-4.028c-2.458-2.354-5.223-5.016-6.49-6.283l-1.414 1.414z" fill="currentColor"/></symbol>
<symbol id="i-icon-favorite-fill" viewBox="0 0 32 32" fill="none" xmlns="http://www.w3.org/2000/svg"><path d="M26.836 16.356c2.489-2.489 2.856-6.583.5-9.199a6.501 6.501 0 00-9.432-.253L16 8.808l-1.644-1.644c-2.489-2.489-6.583-2.856-9.199-.5a6.5 6.5 0 00-.253 9.432C7.456 18.648 16 26.778 16 26.778s8.338-7.923 10.836-10.422z" fill="#383838"/></symbol>
<symbol id="i-icon-favorite-stroke" viewBox="0 0 26 26" fill="none" xmlns="http://www.w3.org/2000/svg"><path d="M21.804 13.29l.354.353-.354-.354zm.407-7.475l-.372.334v.001l.372-.335zm-7.664-.206l-.354-.353.354.353zM13 7.156l-.354.354.354.353.354-.353L13 7.156zm-1.335-1.335l.353-.354-.354.354zM4.19 5.414l.334.372h.001l-.335-.372zm-.206 7.664l-.353.354.353-.354zM13 21.758l-.345.361.345.328.344-.327-.344-.363zm9.158-8.115c2.184-2.184 2.54-5.813.425-8.162l-.743.669c1.712 1.901 1.47 4.926-.39 6.786l.708.707zm.425-8.162a5.782 5.782 0 00-1.876-1.385l-.42.908c.59.272 1.118.662 1.552 1.146l.744-.669zm-1.876-1.385a5.782 5.782 0 00-2.27-.531l-.027 1c.65.017 1.288.166 1.878.439l.42-.908zm-2.27-.531a5.782 5.782 0 00-2.296.408l.37.93a4.78 4.78 0 011.899-.339l.027-1zm-2.296.408c-.73.291-1.392.727-1.948 1.283l.707.707c.46-.46 1.008-.82 1.611-1.06l-.37-.93zm-1.948 1.283l-1.547 1.547.708.707L14.9 5.963l-.707-.707zm-.84 1.547l-1.335-1.336-.707.707 1.335 1.336.708-.707zm-1.335-1.336c-2.184-2.184-5.813-2.54-8.162-.425l.669.743c1.901-1.712 4.926-1.47 6.786.39l.707-.708zm-8.162-.425a5.782 5.782 0 00-1.385 1.876l.908.42a4.782 4.782 0 011.145-1.552l-.668-.744zM2.471 6.918a5.781 5.781 0 00-.531 2.27l1 .027c.017-.65.166-1.288.439-1.878l-.908-.42zm-.531 2.27a5.782 5.782 0 00.408 2.296l.93-.37a4.782 4.782 0 01-.339-1.899l-1-.027zm.408 2.296c.291.73.727 1.392 1.283 1.948l.707-.707a4.782 4.782 0 01-1.06-1.611l-.93.37zM13 21.757l.345.363v-.002c.002 0 .003-.001.004-.003l.015-.014.057-.054.219-.208a1280.634 1280.634 0 003.347-3.193c1.946-1.862 4.151-3.983 5.17-5.003l-.706-.707c-1.01 1.01-3.207 3.123-5.156 4.987a1706.824 1706.824 0 01-3.345 3.191l-.218.208-.057.054-.014.014-.004.004h-.001l.344.363zm-9.37-8.325c1.042 1.041 3.3 3.215 5.294 5.124a1744.188 1744.188 0 003.653 3.489l.058.055.015.015.004.003.001.001.345-.362.345-.362-.002-.001-.003-.004-.015-.014-.059-.056-.223-.213a1852.162 1852.162 0 01-3.427-3.273c-1.996-1.912-4.246-4.077-5.278-5.11l-.707.708z" fill="currentColor"/></symbol>
<symbol id="i-icon-favorite" viewBox="0 0 32 32" fill="none" xmlns="http://www.w3.org/2000/svg"><path d="M26.836 16.356c2.489-2.489 2.856-6.583.5-9.199a6.501 6.501 0 00-9.432-.253L16 8.808l-1.644-1.644c-2.489-2.489-6.583-2.856-9.199-.5a6.5 6.5 0 00-.253 9.432C7.456 18.648 16 26.778 16 26.778s8.338-7.923 10.836-10.422z" fill="currentColor"/></symbol>
<symbol id="i-icon-gc-arrow" viewBox="0 0 57 57" fill="none" xmlns="http://www.w3.org/2000/svg" xmlns:xlink="http://www.w3.org/1999/xlink"><path transform="rotate(134.821 56.424 28.124)" fill="url(#pattern0)" d="M56.424 28.124h39.898v39.898H56.424z"/></symbol>
<symbol id="i-icon-google-play" viewBox="0 0 216 64" fill="none" xmlns="http://www.w3.org/2000/svg"><path d="M208 1.28A6.72 6.72 0 01214.72 8v48a6.72 6.72 0 01-6.72 6.72H8A6.72 6.72 0 011.28 56V8A6.72 6.72 0 018 1.28h200zM208 0H8a8 8 0 00-8 8v48a8 8 0 008 8h200a8 8 0 008-8V8a8.001 8.001 0 00-8-8z" fill="currentColor"/><path d="M109.024 34.8a6.8 6.8 0 106.832 6.8 6.708 6.708 0 00-4.204-6.318 6.709 6.709 0 00-2.628-.482zm0 10.928a4.125 4.125 0 01-4.368-4.742 4.127 4.127 0 018.208.614 3.936 3.936 0 01-3.84 4.128zM94.128 34.8a6.8 6.8 0 106.816 6.8 6.708 6.708 0 00-4.204-6.318 6.704 6.704 0 00-2.628-.482h.016zm0 10.928a4.128 4.128 0 113.824-4.128 3.936 3.936 0 01-3.84 4.128h.016zm-17.744-8.832v2.88h6.912a6.032 6.032 0 01-1.6 3.632 7.072 7.072 0 01-5.328 2.112 7.68 7.68 0 010-15.36 7.36 7.36 0 015.232 2.064l2.032-2.032a10.063 10.063 0 00-7.248-2.992 10.576 10.576 0 100 21.136 9.6 9.6 0 007.376-2.96 9.6 9.6 0 002.496-6.752 9.404 9.404 0 00-.16-1.808l-9.712.08zm72.496 2.24a6.397 6.397 0 00-5.824-4.336 6.402 6.402 0 00-6.4 6.8 6.661 6.661 0 004.142 6.308 6.654 6.654 0 002.61.492 6.767 6.767 0 005.664-3.008l-2.32-1.6a3.886 3.886 0 01-3.344 1.888 3.457 3.457 0 01-3.296-2.064l9.104-3.76-.336-.72zm-9.28 2.272a3.732 3.732 0 012.123-3.612 3.725 3.725 0 011.429-.356 2.644 2.644 0 012.528 1.44l-6.08 2.528zM132.208 48h2.992V28h-2.992v20zm-4.896-11.68h-.112a4.798 4.798 0 00-3.584-1.6 6.819 6.819 0 00-6.486 6.808 6.818 6.818 0 006.486 6.808 4.642 4.642 0 003.584-1.6h.096v.976c0 2.608-1.392 4-3.632 4a3.761 3.761 0 01-3.424-2.416l-2.608 1.088a6.484 6.484 0 006.032 4.016c3.504 0 6.4-2.064 6.4-7.088V35.2h-2.752v1.12zm-3.424 9.408a4.144 4.144 0 010-8.256 3.845 3.845 0 012.686 1.298 3.831 3.831 0 01.946 2.83 3.797 3.797 0 01-.941 2.844 3.8 3.8 0 01-2.707 1.284h.016zM162.896 28h-7.152v20h2.992v-7.584h4.176a6.223 6.223 0 100-12.416h-.016zm0 9.6h-4.176v-6.816h4.24a3.434 3.434 0 012.427 5.859 3.434 3.434 0 01-2.427 1.005l-.064-.048zm18.448-2.88a5.598 5.598 0 00-5.328 3.056l2.656 1.104a2.834 2.834 0 012.72-1.472 2.877 2.877 0 013.2 2.576v.208a6.606 6.606 0 00-3.12-.768c-2.864 0-5.76 1.6-5.76 4.496a4.626 4.626 0 004.96 4.4 4.21 4.21 0 003.84-1.92h.096V48h2.88v-7.696c0-3.504-2.656-5.536-6.064-5.536l-.08-.048zm-.368 10.96c-.976 0-2.336-.496-2.336-1.696 0-1.6 1.696-2.128 3.2-2.128a5.31 5.31 0 012.72.672 3.615 3.615 0 01-3.504 3.2l-.08-.048zm17.008-10.48l-3.424 8.672h-.096l-3.552-8.672h-3.2l5.328 12.128-3.04 6.736h3.12l8.192-18.864h-3.328zM171.088 48h2.992V28h-2.992v20zM67.376 22.832h-1.184v-3.2h1.009a4.575 4.575 0 001.216-3.68V11.2h6.4v8.416h1.072v3.2h-1.184V20.8h-7.329v2.032zM69.6 16a6.4 6.4 0 01-.911 3.68h4.8v-7.296H69.6V16zm15.857 3.552a4.992 4.992 0 01-7.04 0 5.184 5.184 0 010-7.12 4.96 4.96 0 017.04 0 5.168 5.168 0 010 7.12zm-6.128-.8a3.696 3.696 0 005.216 0 4.096 4.096 0 000-5.504 3.696 3.696 0 00-5.216 0 4.096 4.096 0 000 5.504zm13.76 2.256A4.895 4.895 0 0188.096 16a4.894 4.894 0 014.992-5.008 4.431 4.431 0 013.52 1.6l-.864.832a3.201 3.201 0 00-2.672-1.216 3.63 3.63 0 00-2.656 1.056 4.112 4.112 0 000 5.552 3.634 3.634 0 002.656 1.056A3.792 3.792 0 0096 18.448l.864.864a4.673 4.673 0 01-1.6 1.248 5.04 5.04 0 01-2.177.448zm8.799-.208h-1.232v-8.416h-2.688V11.2h6.592v1.184h-2.672V20.8zm11.152-9.6l-3.632 8.096a2.41 2.41 0 01-2.208 1.712 2.467 2.467 0 01-.96-.208l.32-1.136c.195.113.415.174.64.176.236.018.471-.038.672-.16.193-.163.342-.372.432-.608l.352-.768-3.2-7.088h1.456l2.368 5.504 2.304-5.52h1.456zm1.392 9.6v-9.6h6.944v9.6h-1.232v-8.416h-4.48V20.8h-1.232zm9.136 0v-9.6h1.232v4.112h4.8V11.2h1.232v9.6H129.6v-4.336h-4.8V20.8h-1.232zm17.328-1.248a4.99 4.99 0 01-7.04 0 5.184 5.184 0 010-7.12 4.973 4.973 0 013.52-1.466 4.96 4.96 0 013.52 1.466 5.167 5.167 0 010 7.12zm-6.128-.8a3.698 3.698 0 005.216 0 4.095 4.095 0 000-5.504 3.694 3.694 0 00-5.216 0 4.099 4.099 0 000 5.504zm12.576 2.048v-9.6h3.472c.721-.014 1.42.25 1.952.736a2.413 2.413 0 01.832 1.872 2.09 2.09 0 01-.352 1.2 2.218 2.218 0 01-.944.784c.465.154.872.444 1.168.832.308.392.472.878.464 1.376a2.504 2.504 0 01-.864 1.952 2.96 2.96 0 01-2.048.784l-3.68.064zm1.232-5.488h2.24a1.444 1.444 0 001.12-.464 1.433 1.433 0 00.467-1.01A1.41 1.41 0 00152 12.8a1.371 1.371 0 00-1.072-.464h-2.288l-.064 2.976zm0 4.304h2.48a1.472 1.472 0 001.152-.496c.283-.293.443-.682.448-1.088a1.6 1.6 0 00-1.6-1.6h-2.432l-.048 3.184z" fill="currentColor"/><path fill-rule="evenodd" clip-rule="evenodd" d="M81.936 11.127a4.8 4.8 0 00-3.405 1.416 5.024 5.024 0 000 6.897 4.832 4.832 0 006.811 0 5.008 5.008 0 000-6.897 4.8 4.8 0 00-3.406-1.416zm-1.968.073a5.12 5.12 0 015.602 1.12l.003.002a5.328 5.328 0 010 7.34l-.004.004a5.152 5.152 0 01-7.265 0l-.004-.004a5.344 5.344 0 010-7.34l.003-.003a5.12 5.12 0 011.666-1.12zm57.408-.073a4.794 4.794 0 00-3.405 1.416 5.025 5.025 0 000 6.897 4.83 4.83 0 006.811 0 5.006 5.006 0 000-6.897 4.795 4.795 0 00-3.406-1.416zm-1.967.073a5.114 5.114 0 015.601 1.12l.002.002a5.328 5.328 0 010 7.34l-.003.004a5.15 5.15 0 01-7.265 0l-.004-.004a5.345 5.345 0 010-7.34l.003-.003a5.119 5.119 0 011.666-1.12zm-40.443.334a4.27 4.27 0 00-1.874-.382h-.007a4.736 4.736 0 00-4.829 4.844v.008a4.735 4.735 0 004.83 4.844l.002.16.004-.16a4.88 4.88 0 002.105-.433 4.512 4.512 0 001.45-1.094l-.636-.636a3.95 3.95 0 01-2.936 1.347 3.792 3.792 0 01-2.771-1.103l-.006-.005a4.272 4.272 0 010-5.768l.005-.006a3.792 3.792 0 012.768-1.102 3.36 3.36 0 012.686 1.141l.632-.607a4.272 4.272 0 00-1.423-1.048zm-1.877 9.634A5.055 5.055 0 0187.935 16a5.057 5.057 0 015.152-5.168 4.593 4.593 0 013.644 1.658l.094.114-1.098 1.058-.11-.139a3.04 3.04 0 00-2.538-1.155h-.012a3.472 3.472 0 00-2.536 1.007 3.952 3.952 0 000 5.33 3.473 3.473 0 002.536 1.007h.003a3.632 3.632 0 002.805-1.364l.111-.14 1.093 1.094-.092.112a4.832 4.832 0 01-1.655 1.29l-.002.002a5.2 5.2 0 01-2.243.462zm59.572-9.114a2.66 2.66 0 00-1.842-.694h-3.315v9.277l3.518-.061h.005c.717.01 1.41-.256 1.937-.742l.003-.003a2.354 2.354 0 00.81-1.828l-.001-.005a2.015 2.015 0 00-.429-1.275l-.002-.002a2.268 2.268 0 00-1.091-.777l-.395-.131.381-.168c.354-.155.658-.407.876-.726.218-.328.331-.715.324-1.108v-.006a2.26 2.26 0 00-.776-1.748l-.003-.003zm.214-.237a2.975 2.975 0 00-2.06-.777h-3.631v9.923l3.838-.067h.003a3.118 3.118 0 002.154-.825c.296-.257.531-.576.689-.934.159-.358.237-.746.228-1.137v.002l-.16-.002.16-.003V18a2.333 2.333 0 00-.497-1.474 2.6 2.6 0 00-.918-.753c.276-.174.514-.403.7-.675l.001-.001c.254-.381.386-.83.378-1.289v.003l-.16-.003.16-.003v.003a2.573 2.573 0 00-.885-1.991zm-84.618-.777h6.72v8.416h1.072v3.52h-1.505V20.96h-7.007v2.032h-1.505v-3.52h1.099a4.415 4.415 0 001.127-3.501l-.001-.01V11.04zm.32.32v4.583a4.736 4.736 0 01-1.26 3.799l-.047.05h-.917v2.88h.864V20.64h7.648v2.016h.864v-2.88h-1.073V11.36h-6.08zm29.231-.32h6.912v1.504h-2.672v8.416h-1.552v-8.416h-2.688V11.04zm.32.32v.864h2.688v8.416h.912v-8.416h2.672v-.864h-6.272zm13.35-.32h1.81l-3.729 8.312a2.577 2.577 0 01-2.352 1.816h-.009a2.624 2.624 0 01-1.022-.221l-.127-.056.413-1.47.179.105c.17.099.364.152.561.154h.011a.976.976 0 00.566-.13c.167-.145.297-.329.376-.535l.004-.01.322-.701-3.272-7.248h1.809l2.26 5.254 2.2-5.27zm.213.32l-2.408 5.77-2.476-5.754h-1.103l3.128 6.929-.38.83a1.668 1.668 0 01-.476.667l-.01.008-.011.007a1.295 1.295 0 01-.761.183 1.46 1.46 0 01-.532-.108l-.229.813c.245.09.504.14.765.143a2.257 2.257 0 002.057-1.598l.003-.01 3.535-7.88h-1.102zm2.581-.32h7.264v9.92h-1.552v-8.416h-4.16v8.416h-1.552v-9.92zm.32.32v9.28h.912v-8.416h4.8v8.416h.912v-9.28h-6.624zm8.816-.32h1.552v4.112h4.48V11.04h1.552v9.92h-1.552v-4.336h-4.48v4.336h-1.552v-9.92zm.32.32v9.28h.912v-4.336h5.12v4.336h.912v-9.28h-.912v4.112h-5.12V11.36h-.912zm-44.512 1.775a3.856 3.856 0 015.441 0l.006.005a4.256 4.256 0 010 5.72l-.005.006a3.856 3.856 0 01-5.442 0l.113-.114-.119.108a4.256 4.256 0 010-5.72l.006-.005zm.228 5.507a3.537 3.537 0 004.985 0 3.936 3.936 0 000-5.284 3.536 3.536 0 00-4.985 0 3.936 3.936 0 000 5.284zm55.212-5.507a3.855 3.855 0 015.441 0l.006.005a4.258 4.258 0 010 5.72l-.005.006a3.859 3.859 0 01-5.442 0l.112-.114-.118.108a4.258 4.258 0 010-5.72l.006-.005zm.228 5.507a3.538 3.538 0 004.985 0 3.937 3.937 0 000-5.284 3.539 3.539 0 00-4.985 0 3.937 3.937 0 000 5.284zm16.042-6.466a1.537 1.537 0 011.192.515 1.595 1.595 0 01.445 1.152 1.576 1.576 0 01-.514 1.119 1.59 1.59 0 01-1.236.51h-2.4l.071-3.296h2.442zm.527.42a1.22 1.22 0 00-.52-.1H148.797l-.057 2.656h2.083a1.276 1.276 0 00.996-.412l.005-.006.005-.005a1.256 1.256 0 00.414-.896 1.262 1.262 0 00-.357-.921l-.006-.006a1.218 1.218 0 00-.427-.31zm-82.013-.372h4.209v7.616h-5.244l.147-.243a6.24 6.24 0 00.889-3.588V12.224zm.32.32v3.451a6.56 6.56 0 01-.795 3.525h4.364v-6.976H69.76zm78.707 3.728h2.589a1.76 1.76 0 011.76 1.76v.002a1.758 1.758 0 01-.49 1.195 1.632 1.632 0 01-1.272.547h-2.64l.053-3.504zm.315.32l-.043 2.864h2.323a1.315 1.315 0 001.027-.442l.004-.005c.254-.263.398-.613.403-.978a1.441 1.441 0 00-1.44-1.439h-2.274z" fill="currentColor"/><path d="M16.873 52.318l19.6-20.33L16.89 11.694c-.523.316-.847 1.047-.847 2.005v36.633c.007.957.32 1.636.83 1.986zM37.176 31.426l5.838-6.056-23.776-13.523a2.56 2.56 0 00-1.318-.37l19.253 19.947.003.002zM37.176 32.551L17.86 52.585c.485.008.962-.123 1.38-.38l23.822-13.558-5.887-6.096zM51.628 30.276l-7.912-4.508-5.998 6.222 6.042 6.26 7.865-4.496c1.673-.955 1.673-2.527.003-3.477z" fill="currentColor"/></symbol>
<symbol id="i-icon-group-akit" version="1.2" xmlns="http://www.w3.org/2000/svg" viewBox="0 0 665 706"><g clip-path="url(#a)"><g clip-path="url(#b)"><g clip-path="url(#c)"><g clip-path="url(#d)"><path d="M-518-143h1700.8v992.1H-518z" fill="none"/><path d="M175.8 231.4h185v212.2h-185z" fill="#fff"/><path fill-rule="evenodd" d="M615.2 620.3c-.1 0 0 0 0 0-11.5 27-31.5 50.6-58.9 66.4-27.3 15.7-57.8 21.3-86.9 17.7q.1 0 0 0C331.8 684.9 108 587 26.6 443.5l-.8-1.2q-3.6-6.4-6.7-12.9H46l9.8-21.3h63.9l10 21.3h46.1v-6.1L99.2 258.9H76.8L8.9 403.2C-25.8 288.4 49.6 142.3 193.9 59 355.2-34.2 541.5-13.5 610 105.1q.3.6.7 1.2c25.5 43.5 40.7 96.4 48.1 152.6H538.3v38.8h41.9v131.7h43.2V297.7h39.2c8 117.1-15 242-47.4 322.6zm-145.8 84.1c0 .1 0 .1 0 0zM87.8 329.6l17.8 41.2H70.2zm257.3 99.8v-6.6q-12.4-19-24.4-38.2-11.9-19.1-24.4-38.1 7.1-7.8 12-18.9 4.9-11.1 9-26.5 2-7.8 7.3-10.2 5.4-2.5 13.5-2v-30q-15.2-3.2-25.9-1.8c-7.2.9-13.2 2.8-18.1 5.6q-7.3 4.3-11.5 11-4.3 6.7-6.3 14.5-3.6 15.3-6.5 23.5-3 8.2-8.8 11.1-4.7 2.5-12.1 2.6-7.4.1-12.8.1v-66.6h-44.6v170.5h44.6v-65.1q4.6 0 11-.1 6.3-.1 10.2-.6l37.3 65.8zm170.3 0V258.9h-15l-87.9 83.2v-83.2h-44.7v171H381l89.8-88.5v88zm99.8 190.9c.1 0 0 0 0 0z" fill="#aaa"/><path d="M8.9 403.2l67.9-144.3h22.4l76.6 164.4v6.1h-46.1l-10-21.3H55.8L46 429.4H19.1s-3.5-7.2-10.2-26.2z" fill="#fff"/><path d="M70.2 370.8l17.6-41.2 17.8 41.2z" fill="#aaa"/><path d="M367.8 429.9v-171h44.6v83.2l88-83.2h14.9v170.5h-44.6v-88.1L381 429.9zM623.4 429.4h-43.2V297.7h-41.9v-38.8h120.5s1.6 10.1 3.8 38.8h-39.2z" fill="#fff"/></g></g></g></g></symbol>
<symbol id="i-icon-info-red" viewBox="0 0 15 15" fill="none" xmlns="http://www.w3.org/2000/svg"><path d="M6.94 8.58h1.22V4H6.94v4.58zm-.16 1.67c0 .41.3.8.8.8.43 0 .73-.39.73-.8 0-.35-.3-.74-.73-.74-.5 0-.8.39-.8.74z" fill="#ce1e1e"/><circle stroke="#ce1e1e" cx="7.5" cy="7.5" r="6.5" stroke-width="2"/></symbol>
<symbol id="i-icon-info" viewBox="0 0 15 15" fill="none" xmlns="http://www.w3.org/2000/svg"><path d="M6.94 8.58h1.22V4H6.94v4.58zm-.16 1.67c0 .41.3.8.8.8.43 0 .73-.39.73-.8 0-.35-.3-.74-.73-.74-.5 0-.8.39-.8.74z" fill="currentColor"/><circle cx="7.5" cy="7.5" r="6.5" stroke="currentColor" stroke-width="2"/></symbol>
<symbol id="i-icon-instagram" viewBox="0 0 32 32" fill="none" xmlns="http://www.w3.org/2000/svg"><g clip-path="url(#clip0)" fill="currentColor"><path d="M16.005 7.784a8.21 8.21 0 00-8.21 8.21 8.21 8.21 0 008.21 8.212 8.21 8.21 0 008.21-8.211 8.21 8.21 0 00-8.21-8.21zm0 13.54a5.328 5.328 0 01-5.33-5.33 5.328 5.328 0 015.33-5.329 5.328 5.328 0 015.33 5.33 5.327 5.327 0 01-5.33 5.33z"/><path d="M22.597.101c-2.944-.137-10.236-.13-13.182 0C6.825.223 4.54.848 2.7 2.69-.377 5.767.016 9.913.016 15.995.016 22.219-.33 26.27 2.7 29.3c3.09 3.088 7.296 2.684 13.305 2.684 6.166 0 8.294.004 10.474-.84 2.964-1.15 5.201-3.8 5.42-8.558.138-2.946.13-10.236 0-13.183C31.635 3.785 28.62.379 22.597.1zm4.66 27.163c-2.017 2.018-4.816 1.838-11.29 1.838-6.667 0-9.34.098-11.29-1.858-2.248-2.236-1.84-5.826-1.84-11.27 0-7.367-.757-12.673 6.636-13.051 1.7-.06 2.2-.08 6.475-.08l.06.04c7.105 0 12.68-.744 13.015 6.648.076 1.686.093 2.193.093 6.462-.001 6.59.124 9.28-1.859 11.271z"/><path d="M24.541 9.38a1.919 1.919 0 100-3.838 1.919 1.919 0 000 3.837z"/></g></symbol>
<symbol id="i-icon-list" fill="none" viewBox="0 0 256 256" xmlns="http://www.w3.org/2000/svg"><path clip-rule="evenodd" d="M56 80c8.837 0 16-7.163 16-16s-7.163-16-16-16-16 7.163-16 16 7.163 16 16 16zm40-28h120v24H96V52zm120 64H96v24h120v-24zm0 64H96v24h120v-24zM72 128c0 8.837-7.163 16-16 16s-16-7.163-16-16 7.163-16 16-16 16 7.163 16 16zm-16 80c8.837 0 16-7.163 16-16s-7.163-16-16-16-16 7.163-16 16 7.163 16 16 16z" fill="currentColor" fill-rule="evenodd"/></symbol>
<symbol id="i-icon-logout" viewBox="0 0 24 24" fill="none" xmlns="http://www.w3.org/2000/svg"><path d="M16.315 8.063L20.253 12l-3.938 3.938M9.75 12h10.5" stroke="currentColor"/><path d="M4.5 3.75v.5-.5zm6.75 16H4.5v1h6.75v-1zm-6.75 0a.25.25 0 01-.177-.073l-.707.707c.235.234.552.366.884.366v-1zm-.177-.073a.25.25 0 01-.073-.177h-1c0 .331.132.65.366.884l.707-.707zM4.25 19.5v-15h-1v15h1zm0-15a.25.25 0 01.073-.177l-.707-.707a1.25 1.25 0 00-.366.884h1zm.073-.177A.25.25 0 014.5 4.25v-1c-.332 0-.65.132-.884.366l.707.707zM4.5 4.25h6.75v-1H4.5v1z" fill="currentColor"/></symbol>
<symbol id="i-icon-loyalty-badge" viewBox="0 0 11 11" fill="none" xmlns="http://www.w3.org/2000/svg"><circle cx="5.5" cy="5.5" r="5.5" fill="#383838"/><path d="M4 7.972c.272 0 .67.028 1.208.028C6.35 8 7 7.41 7 6.38c0-.916-.59-1.498-1.56-1.498-.166 0-.444.014-.624.043V3.817h1.899V3H4v4.972zm1.374-2.273c.57 0 .816.32.816.746 0 .44-.252.738-.856.738-.172 0-.332-.014-.518-.028V5.74c.206-.028.405-.042.558-.042z" fill="#fff"/></symbol>
<symbol id="i-icon-map-pin" xmlns="http://www.w3.org/2000/svg" viewBox="0 0 20 20"><path fill="#383838" d="M10 0a7.65 7.65 0 00-8 8c0 2.52 2 5 3 6s5 6 5 6 4-5 5-6 3-3.48 3-6a7.65 7.65 0 00-8-8zm0 11.25A3.25 3.25 0 1113.25 8 3.25 3.25 0 0110 11.25z"/></symbol>
<symbol id="i-icon-mode-light" xmlns="http://www.w3.org/2000/svg" viewBox="0 0 100 100"><path d="M31 50.5a2 2 0 00-2-2h-9a2 2 0 000 4h9a2 2 0 002-2zM81 48.5h-8a2 2 0 000 4h8a2 2 0 000-4zM52.5 81.881v-9a2 2 0 00-4 0v9a2 2 0 004 0zM48.5 19.881v9a2 2 0 004 0v-9a2 2 0 00-4 0zM37.092 67.799a2 2 0 10-2.828-2.828l-5.844 5.844a2 2 0 102.828 2.828l5.844-5.844zM74.752 30.139a2 2 0 10-2.828-2.828l-5.844 5.844a2 2 0 102.828 2.828l5.844-5.844zM68.26 64.971a2 2 0 10-2.828 2.828l5.842 5.844c.391.391.902.586 1.414.586s1.023-.195 1.414-.586a2 2 0 000-2.828l-5.842-5.844zM36.443 33.154L30.6 27.311a2 2 0 10-2.828 2.828l5.844 5.844c.391.391.902.586 1.414.586s1.023-.195 1.414-.586a2 2 0 00-.001-2.829zM51.299 33.184c-9.478 0-17.188 7.711-17.188 17.189s7.711 17.189 17.188 17.189c9.479 0 17.189-7.711 17.189-17.189s-7.711-17.189-17.189-17.189zm0 30.378c-7.272 0-13.188-5.917-13.188-13.189s5.916-13.189 13.188-13.189 13.189 5.917 13.189 13.189-5.917 13.189-13.189 13.189z"/></symbol>
<symbol id="i-icon-mode-night" xmlns="http://www.w3.org/2000/svg" viewBox="0 0 100 100"><path d="M27.6 73.783c6.914 6.914 16.104 10.721 25.877 10.721 9.768 0 18.951-3.804 25.857-10.709a36.74 36.74 0 004.802-5.915 1.998 1.998 0 00.036-2.125 1.983 1.983 0 00-1.896-.958l-.771.071a2.302 2.302 0 00-.229.034c-.036.008-3.736.771-8.975.771-7.912 0-19.049-1.704-27.168-9.822-13.581-13.58-8.734-36.232-8.684-36.46a2 2 0 00-3.054-2.104 37.206 37.206 0 00-5.777 4.729c-6.912 6.911-10.722 16.103-10.727 25.881-.006 9.782 3.797 18.975 10.709 25.886zm2.845-48.939c.439-.439.89-.865 1.349-1.277-.788 8.053-.631 23.972 10.51 35.112 9.087 9.087 21.328 10.994 29.996 10.994 2.186 0 4.115-.121 5.672-.272-.471.537-.961 1.06-1.467 1.565-6.151 6.151-14.33 9.538-23.029 9.538-8.705 0-16.891-3.391-23.049-9.549-6.155-6.155-9.542-14.344-9.538-23.057.006-8.71 3.4-16.898 9.556-23.054z"/></symbol>
<symbol id="i-icon-order-contacts" viewBox="0 0 18 19" fill="none" xmlns="http://www.w3.org/2000/svg"><path d="M9 0C6.243 0 4 2.243 4 5s2.243 5 5 5 5-2.243 5-5-2.243-5-5-5zm0 8C7.346 8 6 6.654 6 5s1.346-3 3-3 3 1.346 3 3-1.346 3-3 3zm9 11v-1c0-3.859-3.141-7-7-7H7c-3.86 0-7 3.141-7 7v1h2v-1c0-2.757 2.243-5 5-5h4c2.757 0 5 2.243 5 5v1h2z" fill="currentColor"/></symbol>
<symbol id="i-icon-order-courier" viewBox="0 0 21 19" fill="none" xmlns="http://www.w3.org/2000/svg"><path d="M19.272 6.656l-1.368-4.105A2.995 2.995 0 0015.059.5H5.941a2.995 2.995 0 00-2.845 2.051L1.728 6.656A2.003 2.003 0 00.5 8.5v5c0 .753.423 1.402 1.039 1.743-.013.066-.039.126-.039.195V17.5a1 1 0 001 1h1a1 1 0 001-1v-2h12v2a1 1 0 001 1h1a1 1 0 001-1v-2.062c0-.069-.026-.13-.039-.195A1.993 1.993 0 0020.5 13.5v-5c0-.829-.508-1.541-1.228-1.844zM2.5 13.5v-5h16l.002 5H2.5zm3.441-11h9.117c.431 0 .813.274.949.684L17.113 6.5H3.887l1.105-3.316a1 1 0 01.949-.684z" fill="currentColor"/><path d="M5 12.5a1.5 1.5 0 100-3 1.5 1.5 0 000 3zM16 12.5a1.5 1.5 0 100-3 1.5 1.5 0 000 3z" fill="currentColor"/></symbol>
<symbol id="i-icon-order-payment" viewBox="0 0 20 20" fill="none" xmlns="http://www.w3.org/2000/svg"><path d="M10 0C4.486 0 0 4.486 0 10s4.486 10 10 10 10-4.486 10-10S15.514 0 10 0zm0 18c-4.411 0-8-3.589-8-8s3.589-8 8-8 8 3.589 8 8-3.589 8-8 8z" fill="currentColor"/><path d="M8 11.587L5.701 9.292 4.29 10.708l3.713 3.705 6.706-6.706-1.414-1.414L8 11.587z" fill="currentColor"/></symbol>
<symbol id="i-icon-order-pickup" viewBox="0 0 20 16" fill="none" xmlns="http://www.w3.org/2000/svg"><path d="M1 2a1 1 0 011-1h16a1 1 0 011 1v12a1 1 0 01-1 1H2a1 1 0 01-1-1V2z" stroke="currentColor" stroke-width="1.55"/><path d="M10 1v7m0 7V8m0 0h9" stroke="currentColor" stroke-width="1.5"/><path d="M3.5 3.5v5m2-5v5m2-5v5" stroke="currentColor" stroke-linecap="round"/></symbol>
<symbol id="i-icon-order-post" viewBox="0 0 21 21" fill="none" xmlns="http://www.w3.org/2000/svg"><path d="M20.493 6.45a.96.96 0 00-.029-.214c-.007-.025-.021-.049-.03-.074-.021-.057-.04-.113-.07-.165-.016-.027-.038-.049-.057-.075-.032-.045-.063-.091-.102-.13-.023-.022-.053-.04-.078-.061-.039-.032-.075-.067-.12-.094-.004-.003-.009-.003-.014-.006l-.008-.006-8.979-4.99a1.002 1.002 0 00-.97-.001l-9.021 4.99c-.003.003-.006.007-.011.01l-.01.004c-.035.02-.061.049-.094.073-.036.027-.074.051-.106.082-.03.031-.053.067-.079.102-.027.035-.057.066-.079.104-.026.043-.04.092-.059.139-.014.033-.032.064-.041.1a.975.975 0 00-.029.21C.506 6.465.5 6.48.5 6.498V14.5c0 .363.197.698.515.874l8.978 4.987.001.001.002.001.02.011c.043.024.09.037.135.054.032.013.063.03.097.039a1.013 1.013 0 00.506 0c.033-.009.064-.026.097-.039.045-.017.092-.029.135-.054l.02-.011.002-.001.001-.001 8.978-4.987c.316-.176.513-.511.513-.874V6.498c0-.017-.006-.031-.007-.048zm-10.021 3.922L3.558 6.505 6.32 4.977l6.834 3.905-2.682 1.49zm.048-7.719L17.441 6.5l-2.244 1.247-6.83-3.903 2.153-1.191zM2.5 8.205l7 3.916v5.68l-7-3.89V8.205zm9 9.596l.002-5.679 2.998-1.678V13.5l2-1V9.325l2-1.119v5.705l-7 3.89z" fill="currentColor"/></symbol>
<symbol id="i-icon-order-retail" viewBox="0 0 20 19" fill="none" xmlns="http://www.w3.org/2000/svg"><path d="M20 2.932c0-1.59-1.346-2.883-3-2.883H3c-1.654 0-3 1.293-3 2.883v2.72c0 1.013.382 1.932 1 2.64v8.094c0 1.06.897 1.922 2 1.922h14c1.103 0 2-.862 2-1.922V8.291c.618-.707 1-1.626 1-2.64v-2.72zm-2 0v2.72c0 1.096-.849 2.03-1.891 2.083L16 7.737c-1.103 0-2-.862-2-1.922V1.971h3c.552 0 1 .431 1 .96zM8 1.97h4v3.844c0 1.06-.897 1.922-2 1.922s-2-.862-2-1.922V1.971zm-6 .96c0-.529.448-.96 1-.96h3v3.844c0 1.06-.897 1.922-2 1.922l-.109-.003C2.849 7.682 2 6.748 2 5.653V2.932zm6 13.455v-2.883h4v2.883H8zm6 0v-2.883c0-1.06-.897-1.922-2-1.922H8c-1.103 0-2 .862-2 1.922v2.883H3V9.533a4.066 4.066 0 004-1.178 4.061 4.061 0 003 1.304 4.061 4.061 0 003-1.304 4.066 4.066 0 004 1.178v6.853h-3z" fill="currentColor"/></symbol>
<symbol id="i-icon-order-summary" viewBox="0 0 20 16" fill="none" xmlns="http://www.w3.org/2000/svg"><path d="M13.5 12a2.5 2.5 0 100-5 2.5 2.5 0 000 5z" fill="currentColor"/><path d="M10 9.5c0-.815.396-1.532 1-1.988A2.47 2.47 0 009.5 7a2.5 2.5 0 100 5 2.47 2.47 0 001.5-.512A2.486 2.486 0 0110 9.5z" fill="currentColor"/><path d="M18 0H2C.897 0 0 .897 0 2v12c0 1.103.897 2 2 2h16c1.103 0 2-.897 2-2V2c0-1.103-.897-2-2-2zM2 14V2h16l.002 12H2z" fill="currentColor"/></symbol>
<symbol id="i-icon-payments-apple-pay" xmlns="http://www.w3.org/2000/svg" viewBox="0 0 400 300"><path fill="none" d="M-1-1h402v302H-1z"/><g><g fill="#cbcbcb" stroke="null"><path d="M80.14 89.354c4.547-5.667 7.62-13.287 6.82-21.1-6.628.32-14.76 4.387-19.435 10.054-4.227 4.867-7.94 12.807-6.98 20.268 7.428.672 14.889-3.714 19.595-9.222M86.864 100.049c-10.822-.64-20.044 6.147-25.199 6.147-5.187 0-13.095-5.827-21.644-5.667-11.143.16-21.485 6.468-27.152 16.49-11.623 20.043-3.074 49.789 8.229 66.15 5.507 8.07 12.103 16.97 20.844 16.65 8.229-.32 11.463-5.347 21.484-5.347 10.022 0 12.936 5.347 21.645 5.187 9.062-.16 14.697-8.1 20.204-16.17 6.308-9.22 8.87-18.09 9.061-18.602-.16-.16-17.45-6.788-17.61-26.672-.16-16.65 13.576-24.558 14.216-25.07-7.748-11.463-19.883-12.776-24.078-13.096"/><g><path d="M181.16 77.507c23.533 0 39.927 16.234 39.927 39.832 0 23.694-16.714 40.023-40.504 40.023H154.52v41.433h-18.827V77.507h45.467zm-26.672 64.07h21.613c16.393 0 25.71-8.837 25.71-24.11 0-15.305-9.317-24.046-25.646-24.046h-21.677v48.156zM225.986 173.692c0-15.465 11.847-24.975 32.883-26.16l24.206-1.44v-6.82c0-9.83-6.627-15.722-17.738-15.722-10.502 0-17.066 5.027-18.667 12.936h-17.162c.993-15.977 14.633-27.728 36.47-27.728 21.42 0 35.124 11.334 35.124 29.073v60.932h-17.386v-14.537h-.416c-5.123 9.83-16.298 16.041-27.92 16.041-17.29.065-29.394-10.694-29.394-26.575zm57.09-8.005v-6.98l-21.773 1.345c-10.855.768-16.97 5.54-16.97 13.128 0 7.748 6.403 12.775 16.137 12.775 12.68 0 22.605-8.741 22.605-20.268zM317.56 231.358V216.66c1.345.32 4.354.32 5.891.32 8.421 0 12.936-3.522 15.721-12.615 0-.16 1.601-5.38 1.601-5.475l-31.954-88.532h19.66l22.348 71.946h.32l22.35-71.946h19.179l-33.108 93.046c-7.556 21.453-16.297 28.337-34.644 28.337-1.473.032-6.02-.128-7.364-.384z"/></g></g></g></symbol>
<symbol id="i-icon-payments-google-pay" xmlns="http://www.w3.org/2000/svg" viewBox="0 0 400 300"><path fill="none" d="M-1-1h402v302H-1z"/><g><g stroke="null"><g fill="#cacaca"><path d="M186.958 147.901v45.346h-14.39V81.27h38.15c9.669 0 17.914 3.223 24.66 9.669 6.895 6.446 10.343 14.316 10.343 23.61 0 9.519-3.448 17.389-10.344 23.76-6.67 6.37-14.915 9.518-24.659 9.518h-23.76v.075zm0-52.841v39.05h24.06c5.696 0 10.493-1.949 14.24-5.771 3.823-3.823 5.772-8.47 5.772-13.716 0-5.172-1.949-9.744-5.771-13.567-3.748-3.972-8.47-5.921-14.241-5.921h-24.06v-.075zM283.347 114.098c10.643 0 19.038 2.848 25.184 8.544 6.146 5.697 9.219 13.492 9.219 23.386v47.22h-13.716v-10.644h-.6c-5.921 8.77-13.866 13.117-23.76 13.117-8.47 0-15.515-2.474-21.211-7.495s-8.545-11.243-8.545-18.738c0-7.945 2.998-14.241 8.994-18.888 5.997-4.722 14.016-7.046 23.985-7.046 8.545 0 15.59 1.574 21.062 4.722v-3.298c0-5.022-1.95-9.219-5.922-12.742-3.972-3.522-8.619-5.246-13.94-5.246-8.02 0-14.391 3.373-19.038 10.193l-12.667-7.945c6.97-10.118 17.314-15.14 30.955-15.14zm-18.588 55.614c0 3.748 1.574 6.896 4.797 9.37 3.148 2.473 6.895 3.747 11.168 3.747 6.07 0 11.467-2.249 16.19-6.746s7.12-9.743 7.12-15.815c-4.497-3.522-10.719-5.321-18.738-5.321-5.847 0-10.719 1.424-14.616 4.197-3.973 2.923-5.921 6.446-5.921 10.568zM396 116.571l-47.97 110.33h-14.84l17.839-38.6-31.63-71.73h15.665l22.785 55.015h.3l22.186-55.015H396z"/></g><path d="M129.717 138.757c0-4.692-.42-9.181-1.199-13.499H68.197v24.735l34.74.007c-1.41 8.23-5.944 15.245-12.892 19.922v16.048h20.68c12.074-11.176 18.992-27.695 18.992-47.213z" fill="#bcbcbc"/><path d="M90.053 169.922c-5.757 3.883-13.17 6.154-21.841 6.154-16.752 0-30.963-11.288-36.052-26.503H10.828v16.55c10.568 20.97 32.29 35.362 57.384 35.362 17.343 0 31.914-5.704 42.52-15.523l-20.68-16.04z" fill="#adadad"/><path d="M30.15 137.296c0-4.273.713-8.403 2.01-12.285v-16.55H10.828C6.458 117.133 4 126.922 4 137.296s2.466 20.162 6.828 28.834l21.332-16.55a38.718 38.718 0 01-2.01-12.284z" fill="#a0a0a0"/><path d="M68.212 98.508c9.466 0 17.943 3.26 24.636 9.631l18.326-18.31c-11.13-10.367-25.641-16.73-42.962-16.73-25.087 0-46.816 14.39-57.384 35.362l21.332 16.55c5.089-15.215 19.3-26.503 36.052-26.503z" fill="#a5a5a5"/></g></g></symbol>
<symbol id="i-icon-payments-halva" xmlns="http://www.w3.org/2000/svg" viewBox="0 0 400 300"><path fill="none" d="M-1-1h402v302H-1z"/><g><path stroke="null" d="M385.767 187.931h1.394v3.616c.49-.03 1.011.092 1.486-.061 1.18-1.134 2.298-2.36 3.478-3.493.612-.169 1.287-.03 1.915-.062-1.394 1.471-2.82 2.896-4.244 4.336 1.364 1.455 2.819 2.85 4.198 4.29-.644-.031-1.303.091-1.915-.062-1.195-1.149-2.329-2.374-3.524-3.539h-1.394c-.015 1.21 0 2.406-.015 3.616-.46 0-.935 0-1.394-.015.015-2.865 0-5.745.015-8.626h0zm-9.743.016h1.394v3.6h5.04v-3.6h1.41v8.579h-1.425v-3.57h-5.025c-.016 1.195 0 2.375 0 3.57h-1.41c.016-2.865 0-5.714.016-8.58h0zm-5.592 1.777c-.521 1.195-1.057 2.39-1.594 3.585h3.202c-.52-1.195-1.041-2.39-1.608-3.585h0zm-.75-1.777c.52 0 1.04 0 1.562.015 1.256 2.88 2.543 5.745 3.799 8.625h-1.532c-.291-.628-.551-1.256-.858-1.869-1.47.015-2.957 0-4.427 0-.291.628-.552 1.256-.828 1.87h-1.532a434.532 434.532 0 013.815-8.641h0zm-10.449 5.01c-.015.735 0 1.47 0 2.205h2.987c.506 0 1.103.077 1.471-.367.582-.598.184-1.731-.628-1.823-1.287-.046-2.558.015-3.83-.016h0zm-1.41-5.01h6.695c.016.46.016.934 0 1.41h-5.3v2.19c1.225.015 2.435-.015 3.661.015 1.057 0 2.053.75 2.36 1.762.367 1.072-.139 2.344-1.134 2.91-.46.292-1.027.353-1.548.353h-4.733v-8.64h0zm-11.152-.016h1.424c1.134 1.395 2.314 2.758 3.447 4.137 1.18-1.348 2.314-2.758 3.463-4.137.46-.015.934-.015 1.41-.015.014 2.88 0 5.76.014 8.656h-1.394v-6.22c-1.164 1.333-2.298 2.696-3.447 4.044-1.195-1.332-2.282-2.757-3.493-4.075-.015 2.084 0 4.167 0 6.25h-1.409c-.015-2.88-.03-5.76-.015-8.64h0zm-18.966 0h1.394c.015 1.21 0 2.421 0 3.631.49-.015.98.062 1.47-.046 1.21-1.164 2.36-2.405 3.555-3.585h1.853c-1.394 1.471-2.85 2.896-4.228 4.367 1.41 1.409 2.804 2.818 4.182 4.259-.628.015-1.24 0-1.853.015-1.088-1.088-2.16-2.19-3.233-3.279-.413-.551-1.164-.23-1.746-.306v3.6c-.475.015-.935.015-1.394.015-.016-2.91 0-5.79 0-8.67h0zm-7.63 7.231c1.195.016 2.39.016 3.585.016.445.03.904-.245 1.088-.659.306-.659-.2-1.517-.935-1.532-1.24-.046-2.481 0-3.722-.03-.03.735-.016 1.47-.016 2.205h0zm.016-5.79c.015.72 0 1.455.015 2.175 1.18-.015 2.36 0 3.539 0a1.12 1.12 0 001.026-.52c.445-.66-.06-1.67-.858-1.67-1.24-.016-2.481-.016-3.722.015h0zm-1.379-1.425c1.655.015 3.294 0 4.948 0 .965-.03 1.93.551 2.344 1.425.49.95.2 2.129-.505 2.895.904.889 1.01 2.451.168 3.401-.49.582-1.24.904-1.991.904h-4.964c0-2.88-.03-5.745 0-8.625h0zm20.912 1.363c-1.103.368-1.961 1.394-2.084 2.559a3.043 3.043 0 001.164 2.819c.904.735 2.237.873 3.279.367.934-.429 1.639-1.363 1.762-2.405a3.12 3.12 0 00-1.15-2.85c-.842-.628-1.991-.827-2.971-.49h0zm.168-1.654c-2.451.367-4.29 2.91-3.83 5.346.368 2.543 3.064 4.412 5.561 3.846 2.482-.414 4.274-3.064 3.692-5.516-.429-2.435-3.002-4.167-5.423-3.676h0zm-27.867 1.593c-1.18.306-2.13 1.363-2.282 2.589-.169 1.164.398 2.405 1.394 3.033 1.041.69 2.482.66 3.493-.06.995-.675 1.532-1.962 1.287-3.141-.276-1.732-2.207-2.911-3.892-2.421h0zm.046-1.593c2.467-.475 5.102 1.378 5.423 3.876.43 2.313-1.194 4.749-3.492 5.254-2.191.598-4.673-.643-5.516-2.757-.827-1.9-.168-4.305 1.517-5.515a4.657 4.657 0 012.068-.858h0zm-12.378 3.784c.367-2.13 2.374-3.83 4.534-3.83a4.723 4.723 0 013.279 1.225c-.368.368-.735.736-1.103 1.088-.49-.368-1.057-.69-1.685-.735-1.302-.2-2.681.567-3.233 1.761-.628 1.272-.23 2.911.904 3.77 1.118.918 2.834.857 3.953-.031.367.367.72.735 1.087 1.118-1.24 1.057-3.018 1.44-4.58.934-2.16-.674-3.631-3.064-3.156-5.3h0zm-31.421-46.511c.015 3.876-.016 7.736.015 11.612 7.997-.015 15.979.015 23.976-.015 3.14-.077 5.622-3.156 5.377-6.205-.138-1.348-.873-2.573-1.854-3.477-1.24-1.165-2.91-1.961-4.626-1.915-7.63 0-15.259-.016-22.888 0h0zm0-23.761v11.627h19.226c1.456 0 2.957-.444 4.09-1.394 1.579-1.256 2.452-3.385 2.084-5.392-.475-2.482-2.711-4.428-5.163-4.81-1.608-.093-3.217-.016-4.825-.031h-15.412 0zm-18.124-17.542c12.287-.03 24.573.016 36.875 0 1.548.016 3.095-.06 4.642.092 5.7.552 11.184 3.31 14.86 7.721 1.778 2.13 3.202 4.566 3.999 7.231 1.838 5.975.888 12.762-2.558 17.986 1.823 1.532 3.584 3.186 4.917 5.178 3.723 5.423 4.228 12.761 1.731 18.798-1.976 4.902-5.76 9.069-10.54 11.352-2.987 1.424-6.296 2.098-9.605 2.098-14.769.016-29.522.016-44.29.031-.03-23.5-.03-46.986-.03-70.487h0zm-244.428 0h18.4v7.446c0 1.379-.046 2.757.153 4.136.536 4.152 2.65 8.058 5.806 10.8 2.834 2.482 6.496 4 10.264 4.214 4.443.306 8.978-1.226 12.348-4.152 3.677-3.125 5.929-7.844 6.036-12.67.03-3.263 0-6.51.015-9.774h18.4v7.63c-.031 6.28-1.732 12.531-4.918 17.94-2.16 3.691-5.01 6.97-8.319 9.681a36.006 36.006 0 0110.234 13.436 35.722 35.722 0 012.957 12.409c.107 3.14.03 6.281.045 9.422H58.658v-6.266c-.016-2.206.107-4.458-.383-6.634-1.103-5.392-4.949-10.126-10.004-12.302-3.692-1.623-7.951-1.9-11.812-.75-4.136 1.195-7.752 4.029-9.958 7.721a17.378 17.378 0 00-2.466 8.824v9.391h-18.4c.077-4.626-.29-9.299.583-13.864 1.486-8.334 6.082-16.055 12.67-21.387-4.49-3.646-8.09-8.395-10.357-13.726a35.815 35.815 0 01-2.85-12.563c-.107-3.002-.045-5.99-.06-8.962h0zm350.748 18.017a17.306 17.306 0 00-9.253 4.29c-4.03 3.569-6.205 9.1-5.684 14.446.445 5.545 3.784 10.754 8.625 13.496 4.887 2.865 11.214 3.064 16.27.521 4.841-2.359 8.441-7.093 9.376-12.409 1.026-5.362-.674-11.153-4.458-15.09-3.754-3.998-9.468-6.02-14.876-5.254h0zm-3.6-18.109c5.929-.995 12.103-.474 17.771 1.548 7.706 2.711 14.4 8.165 18.629 15.151a35.688 35.688 0 015.01 14.86c.183 1.808.214 3.631.199 5.454 0 11.199.015 22.382 0 33.581h-18.124v-1.838c4.075-2.42 7.339-6.036 9.621-10.157l-.061-.046c-5.975 7.093-14.83 11.674-24.068 12.424-5.99.521-12.118-.49-17.602-2.956-5.331-2.375-10.05-6.098-13.635-10.709a35.81 35.81 0 01-6.894-15.167c-1.302-6.756-.643-13.88 1.961-20.252 2.268-5.669 6.052-10.724 10.816-14.539 4.703-3.8 10.402-6.373 16.377-7.354h0zm-155.42.138a23.102 23.102 0 0112.777.598c4.841 1.639 9.023 4.826 12.378 8.64 4.045 4.596 7.032 10.035 9.254 15.718 2.711 7.017 4.504 14.386 5.469 21.846 1.026 7.829 1.164 15.75 1.149 23.639H219.99c-.03-8.717-.184-17.495-1.731-26.105-1.011-5.47-2.59-10.877-5.01-15.902-1.195-2.451-2.604-4.826-4.427-6.863-1.21-1.348-2.65-2.574-4.382-3.187-1.287-.46-2.742-.368-3.998.2-2.375 1.056-4.137 3.094-5.607 5.177-3.018 4.428-4.933 9.499-6.358 14.63-2.85 10.418-3.049 21.31-3.08 32.035-6.127.015-12.27 0-18.398 0 0-7.783.168-15.596 1.18-23.332.995-7.798 2.803-15.504 5.714-22.812 2.374-5.898 5.591-11.52 9.988-16.147 3.646-3.83 8.257-6.91 13.466-8.135h0zm-79.678 17.955c-2.88.383-5.669 1.486-7.997 3.217-4.55 3.294-7.277 8.917-7.063 14.524.123 5.56 3.14 10.923 7.798 13.956 3.524 2.36 7.936 3.309 12.118 2.666 5.071-.736 9.698-3.892 12.287-8.304 1.991-3.34 2.788-7.353 2.252-11.199-.66-5.055-3.692-9.712-8.013-12.378a17.31 17.31 0 00-11.382-2.482h0zm-2.1-18.322c6.558-.812 13.33.245 19.304 3.033a35.975 35.975 0 0113.252 10.586c4.795 6.128 7.46 13.864 7.49 21.632v35.557H137.51c0-.628-.015-1.256.015-1.884 4.121-2.406 7.43-6.098 9.652-10.295-5.224 6.25-12.64 10.601-20.651 12.087-6.45 1.226-13.252.628-19.38-1.746-5.96-2.283-11.275-6.22-15.228-11.23a35.881 35.881 0 01-7.246-16.346c-1.073-6.526-.337-13.344 2.19-19.456 2.467-6.052 6.634-11.383 11.904-15.259a35.739 35.739 0 0116.806-6.68z" fill-rule="evenodd" clip-rule="evenodd" fill="#cacaca"/></g></symbol>
<symbol id="i-icon-payments-mastercard" xmlns="http://www.w3.org/2000/svg" viewBox="0 0 400 300"><path fill="none" d="M-1-1h402v302H-1z"/><g><g stroke="null"><path d="M105.707 264.032v-15.27c.356-4.988-3.41-9.315-8.399-9.671a8.985 8.985 0 00-1.17 0 9.39 9.39 0 00-8.552 4.326 8.956 8.956 0 00-8.042-4.326 8.013 8.013 0 00-7.126 3.614v-3.003h-5.294v24.33h5.345v-13.489a5.682 5.682 0 014.86-6.413c.357-.051.739-.076 1.095-.051 3.512 0 5.294 2.29 5.294 6.414v13.54h5.344v-13.49c-.407-3.13 1.807-6.006 4.963-6.413.331-.051.662-.051.993-.051 3.614 0 5.344 2.29 5.344 6.414v13.54h5.345zm79.075-24.33h-8.653v-7.381h-5.345v7.38h-4.937v4.836h4.937v11.097c0 5.65 2.189 9.01 8.45 9.01 2.341 0 4.632-.637 6.617-1.884l-1.527-4.53a9.818 9.818 0 01-4.683 1.374c-2.647 0-3.512-1.629-3.512-4.072v-10.995h8.653v-4.835zm45.149-.611a7.204 7.204 0 00-6.414 3.563v-2.952h-5.242v24.33h5.293v-13.641c0-4.021 1.731-6.261 5.192-6.261 1.12-.026 2.265.204 3.309.61l1.629-4.988a11.29 11.29 0 00-3.767-.661h0zm-68.258 2.545a18.143 18.143 0 00-9.926-2.545c-6.159 0-10.13 2.952-10.13 7.788 0 3.97 2.953 6.413 8.4 7.177l2.493.356c2.902.407 4.276 1.17 4.276 2.545 0 1.883-1.934 2.952-5.548 2.952a13.038 13.038 0 01-8.093-2.545l-2.494 4.123a17.48 17.48 0 0010.536 3.156c7.024 0 11.096-3.309 11.096-7.94 0-4.276-3.206-6.516-8.5-7.28l-2.494-.356c-2.29-.305-4.123-.763-4.123-2.392 0-1.782 1.73-2.85 4.632-2.85 2.672.05 5.268.763 7.584 2.086l2.29-4.275zm141.785-2.545a7.204 7.204 0 00-6.414 3.563v-2.952h-5.243v24.33h5.294v-13.641c0-4.021 1.73-6.261 5.192-6.261 1.12-.026 2.265.204 3.308.61l1.63-4.988a11.07 11.07 0 00-3.767-.661h0zm-68.182 12.776c-.28 6.77 4.988 12.496 11.783 12.776a9.38 9.38 0 001.196 0c3.182.153 6.312-.865 8.755-2.901l-2.545-4.276a10.69 10.69 0 01-6.362 2.189c-4.301-.255-7.585-3.97-7.305-8.272a7.774 7.774 0 017.305-7.304c2.29.025 4.53.789 6.362 2.189l2.545-4.276c-2.443-2.036-5.573-3.054-8.755-2.901-6.77-.382-12.572 4.784-12.98 11.58a9.377 9.377 0 000 1.196h0zm49.577 0v-12.165h-5.293v2.952a9.231 9.231 0 00-7.687-3.563c-7.05.356-12.496 6.337-12.14 13.412.331 6.566 5.574 11.835 12.14 12.14a9.232 9.232 0 007.687-3.563v2.952h5.293v-12.165zm-19.698 0c.229-4.072 3.715-7.177 7.762-6.923 4.072.23 7.177 3.716 6.922 7.763a7.38 7.38 0 01-7.33 6.948c-4.02.05-7.329-3.156-7.405-7.203.025-.203.025-.382.05-.585zm-63.881-12.776c-7.05.381-12.471 6.388-12.09 13.438.357 6.668 5.778 11.936 12.446 12.114a14.827 14.827 0 009.977-3.41l-2.596-3.92a11.728 11.728 0 01-7.076 2.545c-3.639.306-6.846-2.341-7.278-5.955h18.07c.05-.662.101-1.323.101-2.036-.05-7.584-4.734-12.776-11.554-12.776h0zm-.102 4.734c3.334-.077 6.083 2.57 6.159 5.904h-12.624c.204-3.41 3.055-6.032 6.465-5.904h0zm132.775 8.042v-21.938h-5.293v12.725a9.231 9.231 0 00-7.686-3.563c-7.05.356-12.497 6.337-12.14 13.412.33 6.566 5.573 11.835 12.14 12.14a9.232 9.232 0 007.686-3.563v2.952h5.293v-12.165zm8.832 8.628c.33 0 .661.05.967.178.28.127.56.305.789.509.229.229.407.483.534.763.255.611.255 1.273 0 1.884a2.3 2.3 0 01-.534.763c-.23.23-.484.407-.79.51a2.533 2.533 0 01-.966.203 2.522 2.522 0 01-2.29-1.476 2.418 2.418 0 010-1.884 2.3 2.3 0 01.534-.763c.229-.23.483-.407.788-.51.306-.101.637-.177.968-.177h0zm0 4.3c.254 0 .509-.05.738-.152.229-.102.432-.229.585-.407a1.89 1.89 0 000-2.672 2.208 2.208 0 00-.585-.408 1.826 1.826 0 00-.738-.152c-.255 0-.51.05-.738.152-.23.102-.433.23-.611.408a1.89 1.89 0 000 2.672c.178.178.381.305.61.407.23.127.484.153.739.153h0zm.152-3.002c.23-.026.484.05.662.203.153.127.255.331.23.535 0 .178-.052.33-.18.458-.152.127-.33.203-.534.229l.739.84h-.586l-.687-.84h-.23v.84h-.483v-2.24h1.07v-.025zm-.56.407v.61h.56a.678.678 0 00.306-.076c.076-.05.127-.127.102-.229 0-.076-.026-.178-.102-.229a.678.678 0 00-.306-.076h-.56zm-28.122-10.333c.229-4.072 3.715-7.177 7.762-6.923 4.072.23 7.177 3.716 6.923 7.763a7.38 7.38 0 01-7.33 6.948c-4.021.05-7.33-3.156-7.406-7.203.05-.203.05-.382.05-.585zm-178.74 0v-12.165h-5.293v2.952a9.231 9.231 0 00-7.686-3.563c-7.05.356-12.496 6.337-12.14 13.412.33 6.566 5.574 11.835 12.14 12.14a9.232 9.232 0 007.686-3.563v2.952h5.294v-12.165zm-19.698 0c.229-4.072 3.716-7.177 7.762-6.923 4.072.23 7.177 3.716 6.923 7.763a7.38 7.38 0 01-7.33 6.948c-4.021.05-7.33-3.156-7.406-7.203.05-.203.05-.382.05-.585h0z" fill="#cacaca"/><path fill="#aaa" d="M159.917 54.294h80.169v144.075h-80.169z"/><path d="M165.007 126.345A91.43 91.43 0 01200 54.32C160.222 23.04 102.627 29.938 71.35 69.743c-31.279 39.78-24.382 97.374 15.423 128.652 33.238 26.113 80.016 26.113 113.23 0-22.117-17.382-35.02-43.953-34.995-72.05z" fill="#cacaca"/><path d="M348.25 126.345c0 50.596-41.026 91.622-91.621 91.622A91.62 91.62 0 01200 198.37c39.78-31.279 46.676-88.899 15.398-128.678A91.811 91.811 0 00200 54.294c39.78-31.278 97.374-24.381 128.653 15.423a91.566 91.566 0 0119.596 56.628h0z" fill="#909091"/><path d="M339.495 183.1v-2.953h1.197v-.61h-3.029v.61h1.196v2.953h.636zm5.88 0v-3.563h-.917l-1.069 2.443-1.069-2.443h-.916v3.563h.662v-2.673l.993 2.316h.687l.992-2.316v2.698h.637v-.025z" fill="#cacaca"/></g></g></symbol>
<symbol id="i-icon-payments-mir" viewBox="0 0 400 120" xmlns="http://www.w3.org/2000/svg"><g fill="#AAA" fill-rule="evenodd"><path d="M63.55 13.016c3.145-.018 12.491-.86 16.45 12.5 2.667 9 6.915 23.743 12.744 44.228h2.373c6.252-21.597 10.546-36.34 12.883-44.227 4-13.5 14-12.5 18-12.5h30.861v96h-31.454V52.441h-2.11l-17.534 56.574H82.098L64.564 52.4h-2.11v56.616H31v-96zm138.479 0v56.617h2.509l21.329-46.555c4.14-9.265 12.964-10.061 12.964-10.061h30.439v96h-32.111V52.4h-2.51l-20.91 46.556c-4.14 9.222-13.383 10.06-13.383 10.06h-30.439v-96h32.112zm178.232 45.62c-4.48 12.693-18.546 21.784-34.12 21.784h-33.674v28.597H281.93v-50.38zM347.614 13.017H280.33c1.602 21.373 20.007 39.67 39.061 39.67h62.992c3.635-17.764-8.879-39.67-34.768-39.67z"/></g></symbol>
<symbol id="i-icon-payments-visa" xmlns="http://www.w3.org/2000/svg" viewBox="0 0 1000 324.68"><path d="M651.19.5c-70.93 0-134.32 36.77-134.32 104.69 0 77.9 112.42 83.28 112.42 122.42 0 16.48-18.88 31.23-51.14 31.23-45.77 0-79.98-20.61-79.98-20.61l-14.64 68.55s39.41 17.41 91.73 17.41c77.55 0 138.58-38.57 138.58-107.66 0-82.32-112.89-87.54-112.89-123.86 0-12.91 15.5-27.05 47.66-27.05 36.29 0 65.89 14.99 65.89 14.99l14.33-66.2c0-.01-32.22-13.91-77.64-13.91zM2.22 5.5L.5 15.49s29.84 5.46 56.72 16.36c34.61 12.49 37.07 19.77 42.9 42.35l63.51 244.83h85.14L379.93 5.5h-84.94l-84.28 213.17-34.39-180.7C173.16 17.29 157.19 5.5 137.63 5.5H2.22zm411.86 0l-66.63 313.53h81L494.85 5.5h-80.77zm451.76 0c-19.53 0-29.88 10.46-37.47 28.73L709.7 319.03h84.94l16.43-47.47h103.48l9.99 47.47h74.95L934.12 5.5h-68.28zm11.05 84.7l25.18 117.65h-67.45L876.89 90.2z" fill="#cacaca"/></symbol>
<symbol id="i-icon-pickpoint-card" viewBox="0 0 18 13" fill="none" xmlns="http://www.w3.org/2000/svg"><path d="M17 4.208V3a2 2 0 00-2-2H3a2 2 0 00-2 2v1.208m16 0V10a2 2 0 01-2 2H3a2 2 0 01-2-2V4.208m16 0H1" stroke="currentColor" stroke-width="1.5" stroke-linecap="round" stroke-linejoin="round"/></symbol>
<symbol id="i-icon-pickpoint-fitting" viewBox="0 0 19 13" fill="none" xmlns="http://www.w3.org/2000/svg"><path d="M6.825 3.75C6.825 2.231 8.023 1 9.5 1c1.477 0 2.675 1.231 2.675 2.75S11.625 5.4 9.5 6.5L1.604 9.906a1 1 0 00-.604.918V11a1 1 0 001 1h15a1 1 0 001-1v-.176a1 1 0 00-.604-.918L13.75 8.333" stroke="currentColor" stroke-width="1.5" stroke-linecap="round"/></symbol>
<symbol id="i-icon-pickpoint-postamat" viewBox="0 0 20 16" fill="none" xmlns="http://www.w3.org/2000/svg"><path d="M1 2a1 1 0 011-1h16a1 1 0 011 1v12a1 1 0 01-1 1H2a1 1 0 01-1-1V2z" stroke="currentColor" stroke-width="1.55"/><path d="M10 1v7m0 7V8m0 0h9" stroke="currentColor" stroke-width="1.5"/><path d="M3.5 3.5v5m2-5v5m2-5v5" stroke="currentColor" stroke-linecap="round"/></symbol>
<symbol id="i-icon-plus" viewBox="0 0 7 7" fill="none" xmlns="http://www.w3.org/2000/svg"><path d="M0 3.5h7M3.5 0v7" stroke="currentColor"/></symbol>
<symbol id="i-icon-search" viewBox="0 0 32 32" fill="none" xmlns="http://www.w3.org/2000/svg"><circle cx="15.364" cy="15.364" r="10.364" stroke="currentColor" stroke-width="2"/><path d="M28.998 29l-5.682-5.683" stroke="currentColor" stroke-width="2"/></symbol>
<symbol id="i-icon-shop-darken" viewBox="0 0 33 44" fill="none" xmlns="http://www.w3.org/2000/svg"><path d="M16.695 44l-.982-1.083C15.099 42.316.7 25.678.7 15.675.69 6.995 7.833 0 16.695 0 25.558 0 32.7 6.995 32.7 15.675c0 10.003-14.399 26.64-15.013 27.363l-.992.962z" fill="#383838"/><path d="M19.745 10.536l-7.89 10.956v1.065h2.114l7.829-10.903v-1.118h-2.053zM18.45 10.536H11.86v1.92h5.203l1.388-1.92zM15.334 22.565l6.477-.008v-1.996h-5.045l-1.432 2.004z" fill="#fff"/></symbol>
<symbol id="i-icon-socials-facebook" viewBox="0 0 10 19" fill="none" xmlns="http://www.w3.org/2000/svg"><path d="M6.667 18.58v-8.116h2.765l.41-3.179H6.668V5.261c0-.917.258-1.545 1.587-1.545h1.684V.883A22.552 22.552 0 007.47.757c-2.444 0-4.122 1.478-4.122 4.19V7.28H.602v3.178h2.753v8.123h3.312z" fill="currentColor"/></symbol>
<symbol id="i-icon-socials-instagram" viewBox="0 0 25 25" fill="none" xmlns="http://www.w3.org/2000/svg"><path d="M12.038 8.092c-2.554 0-4.623 2.05-4.623 4.578 0 2.53 2.069 4.58 4.623 4.58 2.552 0 4.623-2.05 4.623-4.58 0-2.528-2.071-4.578-4.623-4.578zm0 7.553c-1.66 0-3.004-1.332-3.004-2.974 0-1.643 1.345-2.974 3.004-2.974s3.002 1.331 3.002 2.974c0 1.642-1.343 2.974-3.002 2.974zM16.845 8.99c.595 0 1.078-.477 1.078-1.067s-.483-1.067-1.078-1.067c-.596 0-1.078.478-1.078 1.067 0 .59.482 1.068 1.078 1.068z" fill="currentColor"/><path d="M20.572 6.838a4.583 4.583 0 00-2.633-2.607 6.663 6.663 0 00-2.187-.416c-.963-.041-1.268-.053-3.71-.053-2.441 0-2.754 0-3.71.053a6.61 6.61 0 00-2.183.416 4.578 4.578 0 00-2.633 2.607 6.466 6.466 0 00-.42 2.165c-.042.952-.055 1.255-.055 3.674 0 2.418 0 2.726.056 3.674.015.741.156 1.472.419 2.166a4.588 4.588 0 002.634 2.607 6.64 6.64 0 002.185.446c.963.041 1.268.054 3.71.054 2.441 0 2.755 0 3.71-.054a6.672 6.672 0 002.185-.416 4.59 4.59 0 002.633-2.607 6.466 6.466 0 00.42-2.165c.043-.953.056-1.255.056-3.674 0-2.42 0-2.727-.056-3.675a6.462 6.462 0 00-.421-2.195zm-1.218 9.44a4.952 4.952 0 01-.311 1.672 2.973 2.973 0 01-1.712 1.694c-.535.197-1.1.3-1.67.308-.95.044-1.218.055-3.654.055-2.438 0-2.687 0-3.655-.055a5.001 5.001 0 01-1.67-.308 2.97 2.97 0 01-1.718-1.694 4.989 4.989 0 01-.311-1.653c-.043-.941-.053-1.207-.053-3.619 0-2.414 0-2.66.053-3.62.007-.57.11-1.135.31-1.67a2.972 2.972 0 011.72-1.696c.534-.196 1.1-.3 1.669-.308.95-.043 1.218-.055 3.655-.055s2.687 0 3.654.055c.57.007 1.135.11 1.67.308.785.3 1.407.916 1.712 1.695.195.53.302 1.089.31 1.653.043.942.054 1.207.054 3.62 0 2.413 0 2.672-.043 3.619h-.01v-.001z" fill="currentColor"/></symbol>
<symbol id="i-icon-socials-ok" viewBox="0 0 12 21" fill="none" xmlns="http://www.w3.org/2000/svg"><path d="M5.814 11.017C2.989 11.017.64 8.694.64 5.945.64 3.1 2.989.776 5.815.776a5.135 5.135 0 015.173 5.169c-.01 2.81-2.32 5.082-5.157 5.073h-.017zm0-7.253c-1.196 0-2.106.995-2.106 2.182 0 1.184.91 2.085 2.107 2.085 1.245 0 2.107-.9 2.107-2.085 0-1.188-.862-2.182-2.108-2.182zm2.06 11.474l2.923 2.798c.574.615.574 1.516 0 2.086-.623.615-1.581.615-2.06 0l-2.922-2.846-2.826 2.846c-.287.284-.671.426-1.103.426-.335 0-.718-.143-1.054-.426-.575-.57-.575-1.47 0-2.087l2.97-2.798a13.56 13.56 0 01-3.063-1.326c-.72-.38-.862-1.327-.48-2.039.48-.711 1.342-.9 2.109-.426a6.676 6.676 0 006.897 0c.766-.474 1.675-.285 2.106.426.432.712.24 1.659-.431 2.04-.91.569-1.963.995-3.065 1.327h-.001z" fill="currentColor"/></symbol>
<symbol id="i-icon-socials-telegram" viewBox="0 0 24 24" fill="none" xmlns="http://www.w3.org/2000/svg"><path d="M20.949 5.374l-2.717 12.81c-.204.904-.739 1.13-1.498.704l-4.14-3.05-1.996 1.92c-.221.222-.406.406-.832.406l.297-4.215 7.671-6.931c.334-.298-.072-.462-.518-.165l-9.483 5.971-4.083-1.278c-.888-.277-.904-.888.185-1.314L19.803 4.08c.74-.277 1.387.165 1.146 1.294z" fill="currentColor"/></symbol>
<symbol id="i-icon-socials-tiktok" viewBox="0 0 18 20" fill="none" xmlns="http://www.w3.org/2000/svg"><path d="M12.552 0H9.198v13.623c0 1.623-1.29 2.957-2.896 2.957-1.605 0-2.895-1.334-2.895-2.957 0-1.594 1.261-2.898 2.81-2.956v-3.42C2.804 7.303.052 10.115.052 13.622.053 17.16 2.863 20 6.33 20c3.469 0 6.278-2.87 6.278-6.377V6.638a7.742 7.742 0 004.444 1.507v-3.42C14.53 4.638 12.552 2.55 12.552 0z" fill="currentColor"/></symbol>
<symbol id="i-icon-socials-viber" viewBox="0 0 24 24" fill="none" xmlns="http://www.w3.org/2000/svg"><path fill-rule="evenodd" clip-rule="evenodd" d="M19.53 11.16c-.56-4.428-2.587-6.52-6.984-7.195-.072-.011-.152-.017-.233-.023-.328-.024-.68-.05-.659-.436.032-.546.425-.519.75-.497.1.007.194.014.27.003 4.223.142 7.86 4.009 7.808 8.18-.001.067.002.14.006.214.017.378.036.8-.474.79-.457-.009-.463-.387-.469-.748-.002-.1-.003-.199-.014-.288zm-1.652 3.832c.478.334.958.668 1.412 1.034.09.072.183.143.276.215.677.517 1.358 1.037.966 2.144-.463 1.31-2.067 2.629-3.437 2.615a4.541 4.541 0 00-.193-.046c-.203-.045-.473-.106-.723-.213-6.015-2.59-10.384-6.833-12.866-12.928-.833-2.043.036-3.768 2.134-4.474a1.627 1.627 0 011.116 0c.894.33 3.16 3.448 3.21 4.382.04.715-.446 1.103-.93 1.43-.91.62-.916 1.405-.526 2.28.88 1.98 2.384 3.34 4.331 4.222.707.32 1.382.289 1.865-.442.859-1.3 1.912-1.238 3.064-.43l.3.211zm-4.472-9.813a4.637 4.637 0 01-.198-.03c-.383-.063-.798-.132-.882.367-.083.498.309.552.673.602.086.012.17.023.246.04 2.716.607 3.661 1.596 4.108 4.29.013.077.018.164.024.252.021.355.044.731.58.65.373-.057.362-.37.353-.652-.003-.09-.006-.178.004-.253.021-2.586-2.195-4.94-4.908-5.266zm-.414 2.454c.104-.302.381-.332.664-.34 1.203-.03 2.614 1.413 2.594 2.661.012.342-.024.7-.428.749-.291.034-.482-.21-.512-.511-.112-1.111-.698-1.768-1.812-1.947-.334-.054-.661-.161-.506-.612z" fill="currentColor"/></symbol>
<symbol id="i-icon-socials-vk" viewBox="0 0 21 13" fill="none" xmlns="http://www.w3.org/2000/svg"><path d="M19.579 1.536c.14-.46 0-.799-.662-.799h-2.193c-.558 0-.813.293-.953.613 0 0-1.115 2.693-2.695 4.44-.51.507-.743.668-1.021.668-.139 0-.341-.16-.341-.621V1.536c0-.553-.161-.799-.626-.799H7.642c-.348 0-.558.256-.558.5 0 .522.79.643.871 2.117v3.197c0 .7-.127.828-.407.828-.743 0-2.551-2.703-3.624-5.797-.209-.6-.42-.844-.98-.844H.752C.125.738 0 1.031 0 1.351c0 .577.743 3.43 3.461 7.201 1.812 2.576 4.363 3.973 6.687 3.973 1.393 0 1.565-.31 1.565-.845V9.733c0-.62.133-.745.574-.745.324 0 .882.163 2.183 1.404 1.486 1.471 1.732 2.132 2.567 2.132h2.192c.626 0 .939-.31.759-.922-.197-.61-.907-1.496-1.849-2.545-.512-.598-1.277-1.241-1.51-1.563-.325-.415-.231-.598 0-.967.001.001 2.672-3.725 2.95-4.991z" fill="currentColor"/></symbol>
<symbol id="i-icon-socials-whatsapp" viewBox="0 0 24 24" fill="none" xmlns="http://www.w3.org/2000/svg"><path d="M21 11.768c0 4.843-3.956 8.768-8.836 8.768a8.851 8.851 0 01-4.272-1.09L3 21l1.595-4.704a8.676 8.676 0 01-1.268-4.528C3.327 6.926 7.283 3 12.164 3 17.044 3 21 6.926 21 11.768zm-8.836-7.372c-4.097 0-7.43 3.307-7.43 7.372 0 1.613.526 3.107 1.416 4.322l-.929 2.738 2.855-.907a7.424 7.424 0 004.088 1.219c4.096 0 7.429-3.307 7.429-7.372 0-4.064-3.333-7.372-7.43-7.372zm4.462 9.392c-.055-.09-.199-.144-.415-.251-.217-.108-1.282-.628-1.48-.699-.199-.072-.344-.108-.488.107-.144.215-.56.7-.686.843-.126.143-.253.161-.47.054-.216-.108-.914-.335-1.741-1.067-.644-.57-1.079-1.273-1.205-1.488-.126-.215-.013-.331.095-.438.098-.097.217-.251.325-.377.109-.125.145-.215.216-.358.073-.144.037-.269-.018-.377-.054-.107-.487-1.165-.668-1.595-.18-.43-.36-.359-.487-.359-.126 0-.27-.018-.415-.018a.8.8 0 00-.578.27c-.198.214-.758.734-.758 1.792 0 1.057.776 2.08.885 2.223.108.143 1.498 2.384 3.7 3.244 2.202.86 2.202.573 2.6.537.396-.036 1.28-.52 1.462-1.021.18-.503.18-.933.126-1.022z" fill="currentColor"/></symbol>
<symbol id="i-icon-socials-youtube" viewBox="0 0 21 15" fill="none" xmlns="http://www.w3.org/2000/svg"><path d="M19.646 2.92a2.494 2.494 0 00-1.762-1.75C16.318.744 10.053.737 10.053.737s-6.264-.006-7.831.4A2.547 2.547 0 00.456 2.899C.043 4.45.039 7.666.039 7.666s-.004 3.232.406 4.768c.23.848.905 1.519 1.763 1.748 1.582.425 7.83.432 7.83.432s6.265.007 7.83-.399a2.504 2.504 0 001.768-1.746c.414-1.55.417-4.765.417-4.765s.02-3.234-.407-4.785zM8.049 10.645l.005-5.942L13.26 7.68l-5.212 2.966z" fill="currentColor"/></symbol>
<symbol id="i-icon-sort" viewBox="0 0 24 24" xmlns="http://www.w3.org/2000/svg"><path fill="none" d="M0 0h24v24H0z"/><path d="M20 4v12h3l-4 5-4-5h3V4h2zm-8 14v2H3v-2h9zm2-7v2H3v-2h11zm0-7v2H3V4h11z"/></symbol>
<symbol id="i-icon-spotify" xmlns="http://www.w3.org/2000/svg" viewBox="-33.497 -55.829 290.311 334.974"><path d="M177.707 98.987c-35.992-21.375-95.36-23.34-129.719-12.912-5.519 1.674-11.353-1.44-13.024-6.958-1.672-5.521 1.439-11.352 6.96-13.029 39.443-11.972 105.008-9.66 146.443 14.936 4.964 2.947 6.59 9.356 3.649 14.31-2.944 4.963-9.359 6.6-14.31 3.653m-1.178 31.658c-2.525 4.098-7.883 5.383-11.975 2.867-30.005-18.444-75.762-23.788-111.262-13.012-4.603 1.39-9.466-1.204-10.864-5.8a8.717 8.717 0 015.805-10.856c40.553-12.307 90.968-6.347 125.432 14.833 4.092 2.52 5.38 7.88 2.864 11.968m-13.663 30.404a6.954 6.954 0 01-9.569 2.316c-26.22-16.025-59.223-19.644-98.09-10.766a6.955 6.955 0 01-8.331-5.232 6.95 6.95 0 015.233-8.334c42.533-9.722 79.017-5.538 108.448 12.446a6.96 6.96 0 012.31 9.57M111.656 0C49.992 0 0 49.99 0 111.656c0 61.672 49.992 111.66 111.657 111.66 61.668 0 111.659-49.988 111.659-111.66C223.316 49.991 173.326 0 111.657 0" fill="#1ed660"/></symbol>
<symbol id="i-icon-telegram" viewBox="0 0 32 32" fill="none" xmlns="http://www.w3.org/2000/svg"><g clip-path="url(#clip0)"><path d="M12.556 20.241l-.53 7.446c.758 0 1.086-.326 1.48-.716l3.55-3.394 7.357 5.388c1.35.752 2.3.356 2.664-1.241l4.83-22.63h.001c.428-1.995-.721-2.775-2.036-2.286L1.485 13.676c-1.937.752-1.908 1.832-.329 2.321l7.257 2.258L25.271 7.707c.793-.526 1.514-.235.921.29L12.556 20.241z" fill="currentColor"/></g></symbol>
<symbol id="i-icon-user-fill" viewBox="0 0 32 32" fill="none" xmlns="http://www.w3.org/2000/svg"><path d="M28.992 26.498a15.062 15.062 0 00-8.39-6.768 9 9 0 10-9.204 0 15.061 15.061 0 00-8.39 6.768 1 1 0 00.866 1.5L28.127 28a1 1 0 00.865-1.5z" fill="currentColor"/></symbol>
<symbol id="i-icon-user" viewBox="0 0 32 32" fill="none" xmlns="http://www.w3.org/2000/svg"><path d="M16 20a8 8 0 100-16 8 8 0 000 16z" stroke="currentColor" stroke-width="2" stroke-miterlimit="10"/><path d="M3.875 26.999a14.005 14.005 0 0124.253 0" stroke="currentColor" stroke-width="2" stroke-linecap="round" stroke-linejoin="round"/></symbol>
<symbol id="i-icon-views-list" viewBox="0 0 26 26" fill="none" xmlns="http://www.w3.org/2000/svg"><path stroke="currentColor" d="M5.375 5.375h15.25v15.25H5.375zM5 13h16M13 5.5v15"/></symbol>
<symbol id="i-icon-views-square" viewBox="0 0 26 26" fill="none" xmlns="http://www.w3.org/2000/svg"><path stroke="currentColor" d="M5.375 5.375h15.25v15.25H5.375z"/></symbol>
<symbol id="i-icon-vk" viewBox="0 0 32 32" fill="none" xmlns="http://www.w3.org/2000/svg"><g clip-path="url(#clip0)"><path d="M26.553 17.371c-.517-.653-.369-.944 0-1.528.007-.007 4.278-5.908 4.718-7.91h.002c.219-.73 0-1.266-1.057-1.266h-3.499c-.89 0-1.301.46-1.521.975 0 0-1.781 4.264-4.301 7.028-.814.798-1.19 1.054-1.634 1.054-.218 0-.558-.256-.558-.985V7.932c0-.874-.25-1.265-.987-1.265h-5.501c-.559 0-.891.408-.891.788 0 .83 1.26 1.02 1.39 3.353v5.063c0 1.11-.2 1.313-.647 1.313-1.19 0-4.076-4.281-5.787-9.181-.345-.95-.683-1.335-1.58-1.335H1.2c-.999 0-1.2.46-1.2.975 0 .91 1.19 5.43 5.53 11.404 2.894 4.077 6.969 6.287 10.675 6.287 2.228 0 2.5-.491 2.5-1.335 0-3.896-.201-4.264.915-4.264.517 0 1.408.256 3.488 2.223 2.377 2.332 2.768 3.376 4.099 3.376h3.498c.998 0 1.503-.491 1.212-1.459-.665-2.036-5.161-6.224-5.364-6.504z" fill="currentColor"/></g></symbol>
<symbol id="i-icon-whatsapp" viewBox="0 0 32 32" fill="none" xmlns="http://www.w3.org/2000/svg"><g clip-path="url(#clip0)" fill="currentColor"><path d="M23.343 19.076l-.012.1c-2.932-1.461-3.239-1.656-3.618-1.088-.262.393-1.028 1.285-1.258 1.55-.234.26-.466.28-.862.1-.4-.2-1.684-.62-3.204-1.98-1.184-1.06-1.978-2.36-2.213-2.76-.39-.675.427-.771 1.17-2.18.134-.28.066-.5-.033-.698-.1-.2-.896-2.16-1.229-2.941-.32-.78-.65-.68-.896-.68-.768-.067-1.33-.056-1.824.458-2.152 2.366-1.61 4.806.232 7.4 3.619 4.736 5.547 5.608 9.072 6.819.952.303 1.82.26 2.507.161.765-.121 2.356-.961 2.688-1.901.34-.94.34-1.72.24-1.9-.099-.18-.36-.28-.76-.46z"/><path d="M27.36 4.6C17.108-5.312.141 1.876.135 15.857c0 2.795.732 5.52 2.126 7.927L0 32l8.447-2.203C18.987 35.49 31.995 27.93 32 15.866c0-4.235-1.653-8.22-4.66-11.215l.02-.052zm1.976 11.222C29.328 25.999 18.156 32.355 9.32 27.16l-.48-.286-5 1.3 1.34-4.86-.319-.5C-.637 14.062 5.68 2.622 16.096 2.622c3.539 0 6.86 1.38 9.361 3.88a13.05 13.05 0 013.879 9.32z"/></g></symbol>
<symbol id="i-instagram" viewBox="0 0 27 27" fill="none" xmlns="http://www.w3.org/2000/svg"><path d="M19.691 0H7.31C3.279 0 0 3.279 0 7.309v12.383C0 23.722 3.279 27 7.309 27h12.383C23.722 27 27 23.721 27 19.692V7.309C27 3.279 23.721 0 19.691 0zm5.726 19.692a5.732 5.732 0 01-5.726 5.725H7.31a5.732 5.732 0 01-5.726-5.726V7.31a5.732 5.732 0 015.726-5.726h12.383a5.732 5.732 0 015.725 5.726v12.383z" fill="#000"/><path d="M13.5 6.117c-4.07 0-7.383 3.312-7.383 7.383 0 4.07 3.312 7.383 7.383 7.383 4.07 0 7.383-3.312 7.383-7.383 0-4.07-3.312-7.383-7.383-7.383zm0 13.183a5.806 5.806 0 01-5.8-5.8c0-3.198 2.602-5.8 5.8-5.8s5.8 2.602 5.8 5.8-2.602 5.8-5.8 5.8zM21.06 3.495a2.184 2.184 0 00-2.182 2.182c0 1.203.978 2.182 2.181 2.182a2.184 2.184 0 002.182-2.182 2.184 2.184 0 00-2.182-2.182zm0 2.78a.6.6 0 110-1.198.6.6 0 010 1.198z" fill="#000"/></symbol>
<symbol id="i-left-arrow" viewBox="0 0 24 45" fill="none" xmlns="http://www.w3.org/2000/svg"><path d="M22 1L3 22.5 22 43" stroke="#fff" stroke-width="3"/></symbol>
<symbol id="i-limited-bag" viewBox="0 0 16 17" fill="none" xmlns="http://www.w3.org/2000/svg"><g clip-path="url(#clip0)"><path d="M14.94 16.253l-1.217-11.58a.476.476 0 00-.473-.427h-2.286v-.52A2.95 2.95 0 008.018.778a2.95 2.95 0 00-2.946 2.946v.521H2.786a.476.476 0 00-.473.427l-1.216 11.58a.477.477 0 00.473.526h12.896a.476.476 0 00.473-.526zM6.023 3.725c0-1.099.895-1.993 1.994-1.993 1.1 0 1.994.894 1.994 1.993v.521H6.024v-.52zM2.1 15.827L3.215 5.199h1.857v1.05a.476.476 0 00.952 0v-1.05h3.988v1.05a.476.476 0 00.952 0v-1.05h1.857l1.116 10.628H2.099z" fill="currentColor"/></g></symbol>
<symbol id="i-loading" xmlns="http://www.w3.org/2000/svg" viewBox="0 0 50 50"><path fill="currentColor" d="M43.935 25.145c0-10.318-8.364-18.683-18.683-18.683-10.318 0-18.683 8.365-18.683 18.683h4.068c0-8.071 6.543-14.615 14.615-14.615s14.615 6.543 14.615 14.615h4.068z"><animateTransform attributeType="xml" attributeName="transform" type="rotate" from="0 25 25" to="360 25 25" dur="0.6s" repeatCount="indefinite"/></path></symbol>
<symbol id="i-logo-new" data-name=" 1" xmlns="http://www.w3.org/2000/svg" viewBox="0 0 2172 215.77"><path fill="currentColor" d="M1319.56 385.61c0-18.05-5.6-33.36-16.07-44.91-13.58-14.68-35.16-23.13-63.29-23.13h-95.63v214.86h35.75V351.55h56.31c14.13 0 25.32 3.24 33 9.39s12 14.95 12 26.55c0 19-12.49 32-32.79 35.45-3.57.61-24.12 1-24.12 1l-.13 27.95 57.65 80.26h44.11l-58.06-81.41c30.07-8.6 51.27-29.8 51.27-65.13z" transform="translate(-331 -317.12)"/><path fill="currentColor" d="M4.77 34.4h108.3L0 196.24v19.07h165.64v-35.75H55.1L165.64 19.07V0H4.77v34.4zM1692.85 151.95L1565.71 0h-25.11v215.31h35.75V68.46l118.96 146.85h33.93V0h-36.39v151.95zM1239.14 98.71V215.77h35.76V0h-35.76v98.71zM470.78 0l-11.47 23.03 97.72 192.28h39.47L490.16 0h-19.38zM418.08 105.73v.07l-54.56 109.51h39.87l37.49-73.83h43.19l-18.55-35.75h-47.44zM2065.66 0h-19.37l-11.47 23.03 97.72 192.28H2172L2065.66 0zM1993.58 105.73v.07l-54.55 109.51h39.87l37.48-73.83h43.2l-18.55-35.75h-47.45z"/></symbol>
<symbol id="i-logo" viewBox="0 0 188 64" fill="none" xmlns="http://www.w3.org/2000/svg"><g clip-path="url(#clip0)" fill="currentColor"><path d="M107.256 21.671c1.049 0 1.471.902.936 2.02-.531 1.114-1.815 2.02-2.864 2.02-1.048 0-1.471-.902-.935-2.02.531-1.118 1.81-2.02 2.863-2.02zm-41.569 17.61c6.358-6.826 10.65-10.237 12.851-10.237.523 0 .953.23 1.328.667.356.46.526 1.075.5 1.83-.074 2.288-1.262 4.975-3.564 8.074l.152.212c6.38-7.12 10.614-10.658 13.178-10.658 2.189-.004 2.706 1.357 2.498 2.705-.14.897-.644 1.894-1.384 2.54 3.568-.82 6.697-2.943 8.93-5.262h3.764L91.08 45.193c-.931 1.162-1.71 3.905.314 3.905.84 0 2.032-.55 3.594-1.651 3.299-2.332 9.657-10.103 14.971-14.758 2.363-2.072 4.578-3.641 6.127-3.641.522 0 .953.23 1.327.668.357.459.527 1.074.501 1.829-.074 2.288-1.262 4.975-3.569 8.074l.153.213c6.379-7.121 10.744-10.676 13.094-10.676 1.776 0 2.625.984 2.559 2.974-.043 1.335-.452 2.726-1.205 4.152-.77 1.426-2.137 3.203-4.104 5.348-1.967 2.146-3.203 3.554-3.677 4.222-.479.685-.723 1.266-.74 1.742-.013.386.096.72.339.984.231.282.505.42.827.42.801 0 2.076-.563 3.808-1.672 1.732-1.11 3.686-2.848 5.888-5.206l2.193-2.362c1.11-1.916 2.786-3.754 5.027-5.518 4.291-3.393 7.872-5.084 10.731-5.084 1.484 0 2.203.828 2.146 2.497-.013.386-.044.88-.087 1.46l3.016-3.957h3.446l-11.475 15.075c-1.145 1.443-1.728 2.605-1.759 3.485-.017.563.114.983.414 1.283.283.281.587.42.909.42.627 0 1.663-.598 3.09-1.794 1.428-1.197 4.191-3.975 8.29-8.335l.227.368c-4.348 4.642-7.233 7.511-8.647 8.617-1.397 1.11-2.459 1.673-3.168 1.673-.614 0-1.097-.3-1.428-.897-.339-.599-.492-1.318-.461-2.146.048-1.443.64-3.238 1.78-5.4l-.144-.16c-5.479 5.733-9.178 8.598-11.101 8.598-.801 0-1.428-.437-1.854-1.317-.427-.88-.614-2.024-.566-3.429.048-1.395.357-2.76.936-4.091-5.14 5.613-8.926 8.417-11.376 8.417-.575 0-1.058-.3-1.454-.915-.396-.598-.583-1.352-.552-2.266.03-.863.217-1.743.583-2.64.348-.897.748-1.673 1.17-2.288.423-.616 1.437-1.795 3.042-3.537l1.872-2.024c2.119-2.289 3.185-3.87 3.216-4.768.03-.932-.475-1.409-1.515-1.409-1.936 0-4.695 1.812-8.26 5.418-3.577 3.624-7.742 8.318-12.516 14.108h-3.873l11.289-14.23c1.784-2.248 2.689-3.71 2.711-4.416.022-.65-.326-.983-1.062-.983-1.523 0-3.555 1.36-5.918 3.458-6.476 5.756-14.618 16.626-18.761 16.592-.653-.005-1.227-.243-1.562-.828-1.31-2.271-.196-4.712.596-6.35.71-1.46 4.491-6.328 8.973-11.815l-.148-.03c-2.89 2.743-6.806 4.195-9.352 4.486-.156.03-.317.043-.483.039-.922-.026-1.575-.685-.7-2.011.678-1.036 2.123-2.207 3.268-2.029.03-.932-.775-1.526-1.815-1.486-1.888.064-4.63 1.893-8.194 5.5-3.582 3.623-7.742 8.317-12.512 14.108h-3.873l11.289-14.23c1.784-2.25 2.689-3.71 2.71-4.416.023-.65-.326-.984-1.061-.984-2.045 0-6.206 3.302-12.464 9.904l.005.008c-4.348 4.642-7.446 7.672-8.856 8.781-1.402 1.106-2.46 1.673-3.169 1.673-.613 0-1.096-.299-1.427-.897-.34-.598-.492-1.317-.461-2.145.048-1.444.64-3.238 1.78-5.4l-.144-.161c-5.479 5.734-9.178 8.6-11.102 8.6-.8 0-1.427-.439-1.853-1.319-.427-.88-.614-2.024-.566-3.428.13-3.922 2.35-7.58 6.64-10.957 4.292-3.394 7.873-5.084 10.732-5.084 1.484 0 2.203.828 2.146 2.497-.013.385-.044.88-.087 1.46l3.016-3.957h3.446L54.694 44.227c-1.144 1.443-1.727 2.604-1.758 3.484-.017.564.114.984.414 1.283.283.282.587.42.91.42.626 0 1.662-.598 3.09-1.794 1.41-1.179 4.325-4.06 8.342-8.33l-.005-.009zm-6.362-7.754c.04-1.23-.54-1.846-1.74-1.846-2.164 0-5.423 2.479-9.784 7.42-4.356 4.958-6.571 8.443-6.636 10.467-.013.438.117.863.387 1.248.279.404.675.599 1.197.599.761 0 2.023-.633 3.803-1.899 1.78-1.265 3.982-3.324 6.615-6.172 2.633-2.83 4.304-4.906 5.026-6.189.723-1.292 1.097-2.505 1.132-3.628zm91.585 0c.039-1.23-.54-1.846-1.741-1.846-2.163 0-5.423 2.479-9.783 7.42-4.356 4.958-6.571 8.443-6.637 10.467-.013.438.118.863.388 1.248.278.404.674.599 1.196.599.762 0 2.024-.633 3.804-1.899 1.78-1.265 3.982-3.324 6.615-6.172 2.633-2.83 4.304-4.906 5.026-6.189.723-1.292 1.092-2.505 1.132-3.628z"/><path d="M64.433 16.7c0 4.022-9.6 4.629-17.094 5.266-22.816 1.937-34.632-.356-34.41-17.493.161.013.179.017.335.035.858 12.885 23.74 16.543 33.249 16.67 8.199.107 17.494-.907 17.494-4.396 0-1.456-1.693-2.028-3.56-2.028-8.695 0-15.492 11.84-22.303 20.605-6.81 8.764-15.632 21.224-30.189 21.224C2.676 56.58 0 55.592 0 53.837c0-2.679 5.814-3.897 10.562-3.897 18.844 0 37.574 11.477 52.88 11.477 5.078 0 11.249-2.973 11.249-7.715.1.083.174.13.287.23 0 6.822-11.802 9.258-19.226 9.258-17.047 0-24.562-12.803-45.168-12.803C4.556 50.386.44 51.842.44 53.843c0 2.029 4.552 2.306 7.48 2.306 14.823.056 21.155-14.407 26.29-21.372 3.764-5.101 15.719-20.462 26.172-20.462 2.407.004 4.051.936 4.051 2.384zM168.195 5.145c0 1.564.988 3.502 2.789 3.558-1.096-.975-1.249-1.829-1.249-3.342 0-2.535 2.024-5.07 4.57-5.07 2.833 0 5.479 2.336 5.479 5.309 0 1.413-.392 2.687-1.484 4.265 1.214-.438 2.259-.85 3.947-.85 3.02 0 5.344 2.176 5.344 5.301 0 2.457-3.155 4.217-5.884 4.217-3.76 0-7.985-2.626-10.601-2.626-.866 0-1.532.255-1.532.828 0 .533.484.706 1.101.706 1.902 0 3.173-1.708 4.065-2.917.892-1.21 2.22-2.921 3.02-2.921.37 0 .623.1.623.338 0 .312-.475.455-1.097.455-2.463 0-8.042-4.113-11.72-4.113-2.885 0-5.627 2.275-5.627 5.92 0 3.424 2.429 5.904 5.593 5.904 2.058 0 3.364-.841 4.073-1.27-.944 1.01-1.088 2.678-1.088 3.77 0 3.22 2.363 5.587 5.636 5.587 3.442 0 5.796-2.531 5.796-5.218 0-1.357-1.314-2.744-2.598-2.51.675.724.966 1.92.966 2.913 0 1.768-1.623 4.486-4.169 4.486-2.85 0-5.231-2.11-5.231-5.258 0-2.622.897-3.662 1.284-4.316-1.175.49-2.868 1.538-4.743 1.538-2.755 0-5.179-2.384-5.179-5.6 0-2.644 2.102-4.399 5.34-4.399 4.656 0 8.264 2.9 11.484 2.9 1.053 0 1.558-.27 1.558-.79 0-.329-.357-.563-.875-.563-1.362 0-2.794 1.539-3.768 2.675-.84.98-2.033 3.125-3.234 3.125-.674 0-1.035-.117-1.035-.46 0-.342.809-.533 1.392-.533 2.455 0 6.963 3.996 11.21 3.996 2.968 0 5.649-2.709 5.649-5.734 0-3.528-2.328-5.756-5.783-5.756-1.484 0-2.903.56-3.29.685.848-1.153 1.131-2.453 1.131-3.762 0-3.225-2.681-5.591-5.918-5.591-2.955-.022-5.945 1.911-5.945 5.123z"/></g></symbol>
<symbol id="i-pdf-icon" viewBox="0 0 24 24" fill="none" xmlns="http://www.w3.org/2000/svg"><path d="M23.179 6.495L17.064.14A.462.462 0 0016.732 0H7.619c-1.02 0-1.85.83-1.85 1.849v6.459H2.076c-.763 0-1.384.62-1.384 1.383v6.926c0 .762.621 1.383 1.384 1.383H5.77v4.154A1.85 1.85 0 007.62 24h13.84a1.85 1.85 0 001.849-1.845V6.815a.462.462 0 00-.13-.32zm-6.333-5.249l5.02 5.216h-5.02V1.246zm-14.77 15.83a.46.46 0 01-.46-.46V9.692c0-.254.206-.46.46-.46H14.54c.254 0 .461.206.461.46v6.926c0 .253-.207.46-.46.46H2.075zm20.309 5.08a.925.925 0 01-.927.92H7.618a.926.926 0 01-.926-.922V18h7.847c.763 0 1.384-.62 1.384-1.383V9.69c0-.763-.62-1.383-1.384-1.383H6.692v-6.46c0-.51.416-.925.927-.925h8.304v6c0 .255.207.462.462.462h6v14.77z" fill="#E6949E"/><path d="M6.21 11.714a1.04 1.04 0 00-.57-.388c-.148-.04-.466-.06-.952-.06H3.403v3.965h.8v-1.495h.522c.363 0 .64-.02.83-.057.141-.03.28-.094.416-.188.136-.095.248-.225.336-.39.089-.167.133-.371.133-.615 0-.315-.077-.573-.23-.772zm-.685 1.091a.526.526 0 01-.25.195c-.107.042-.318.062-.633.062h-.439v-1.125h.387c.289 0 .48.01.576.027.13.024.237.082.322.176a.512.512 0 01.127.357c0 .117-.03.22-.09.308zM10.288 12.35a1.732 1.732 0 00-.378-.643 1.326 1.326 0 00-.598-.365c-.173-.05-.425-.075-.755-.075H7.094v3.964h1.507c.295 0 .532-.028.708-.084.236-.075.424-.18.563-.316.184-.179.325-.412.424-.7.081-.237.122-.518.122-.844 0-.372-.043-.684-.13-.937zm-.779 1.628c-.054.177-.124.305-.21.382a.738.738 0 01-.322.165c-.1.026-.261.038-.485.038h-.597v-2.626h.36c.326 0 .545.013.657.038.15.033.273.095.37.187.098.092.173.22.227.384.054.164.081.4.081.706 0 .306-.027.548-.08.726zM13.82 11.937v-.67h-2.718v3.964h.8v-1.685h1.656v-.67h-1.655v-.939h1.917z" fill="#E6949E"/></symbol>
<symbol id="i-pdf" viewBox="0 0 24 24" fill="none" xmlns="http://www.w3.org/2000/svg"><path d="M23.179 6.495L17.064.14A.462.462 0 0016.732 0H7.619c-1.02 0-1.85.83-1.85 1.849v6.459H2.076c-.763 0-1.384.62-1.384 1.383v6.926c0 .762.621 1.383 1.384 1.383H5.77v4.154A1.85 1.85 0 007.62 24h13.84a1.85 1.85 0 001.849-1.845V6.815a.462.462 0 00-.13-.32zm-6.333-5.249l5.02 5.216h-5.02V1.246zm-14.77 15.83a.46.46 0 01-.46-.46V9.692c0-.254.206-.46.46-.46H14.54c.254 0 .461.206.461.46v6.926c0 .253-.207.46-.46.46H2.075zm20.309 5.08a.925.925 0 01-.927.92H7.618a.926.926 0 01-.926-.922V18h7.847c.763 0 1.384-.62 1.384-1.383V9.69c0-.763-.62-1.383-1.384-1.383H6.692v-6.46c0-.51.416-.925.927-.925h8.304v6c0 .255.207.462.462.462h6v14.77z" fill="#E6949E"/><path d="M6.21 11.714a1.04 1.04 0 00-.57-.388c-.148-.04-.466-.06-.952-.06H3.403v3.965h.8v-1.495h.522c.363 0 .64-.02.83-.057.141-.03.28-.094.416-.188.136-.095.248-.225.336-.39.089-.167.133-.371.133-.615 0-.315-.077-.573-.23-.772zm-.685 1.091a.526.526 0 01-.25.195c-.107.042-.318.062-.633.062h-.439v-1.125h.387c.289 0 .48.01.576.027.13.024.237.082.322.176a.512.512 0 01.127.357c0 .117-.03.22-.09.308zM10.288 12.35a1.732 1.732 0 00-.378-.643 1.326 1.326 0 00-.598-.365c-.173-.05-.425-.075-.755-.075H7.094v3.964h1.507c.295 0 .532-.028.708-.084.236-.075.424-.18.563-.316.184-.179.325-.412.424-.7.081-.237.122-.518.122-.844 0-.372-.043-.684-.13-.937zm-.779 1.628c-.054.177-.124.305-.21.382a.738.738 0 01-.322.165c-.1.026-.261.038-.485.038h-.597v-2.626h.36c.326 0 .545.013.657.038.15.033.273.095.37.187.098.092.173.22.227.384.054.164.081.4.081.706 0 .306-.027.548-.08.726zM13.82 11.937v-.67h-2.718v3.964h.8v-1.685h1.656v-.67h-1.655v-.939h1.917z" fill="#E6949E"/></symbol>
<symbol id="i-play-icon" viewBox="0 0 9 13" fill="none" xmlns="http://www.w3.org/2000/svg"><path d="M7.97 5.987a1 1 0 010 1.585l-6.36 4.896A1 1 0 010 11.676V1.883a1 1 0 011.61-.793l6.36 4.897z" fill="#fff"/></symbol>
<symbol id="i-podeli-first-pay" viewBox="0 0 28 28" fill="none" xmlns="http://www.w3.org/2000/svg"><circle cx="13.714" cy="13.714" r="12.314" stroke="#E8E8E8" stroke-width="2.8"/><path d="M26.06 13.714c.756 0 1.376-.614 1.3-1.367A13.716 13.716 0 0015.081.068c-.752-.075-1.367.545-1.367 1.301 0 .756.616 1.36 1.366 1.455a10.977 10.977 0 019.525 9.525c.094.75.698 1.365 1.454 1.365z" fill="#EF3124"/><circle cx="13.714" cy="13.714" r="2.675" stroke="#EE3124" stroke-width="2.65"/></symbol>
<symbol id="i-podeli-info" viewBox="0 0 14 14" fill="none" xmlns="http://www.w3.org/2000/svg"><path fill-rule="evenodd" clip-rule="evenodd" d="M7 12.833A5.833 5.833 0 107 1.167a5.833 5.833 0 000 11.666zM7 14A7 7 0 107 0a7 7 0 000 14z" fill="currentColor"/><path d="M6.305 4.497h1.448V2.842H6.305v1.655zm.022 6.392H7.72v-5.51H6.327v5.51z" fill="currentColor"/></symbol>
<symbol id="i-podeli-last-pay" viewBox="0 0 29 28" fill="none" xmlns="http://www.w3.org/2000/svg"><path d="M10.572 13.714l2.857 2.857 5.724-5.714" stroke="#EF3124" stroke-width="2.65" stroke-linecap="round" stroke-linejoin="round"/><circle cx="14.572" cy="13.714" r="12.414" stroke="#EF3124" stroke-width="2.6"/></symbol>
<symbol id="i-podeli-second-pay" viewBox="0 0 28 28" fill="none" xmlns="http://www.w3.org/2000/svg"><circle cx="13.714" cy="13.714" r="12.314" stroke="#E8E8E8" stroke-width="2.8"/><path d="M13.714 26.06c0 .756.615 1.376 1.367 1.3a13.714 13.714 0 000-27.292c-.752-.075-1.367.545-1.367 1.301 0 .756.615 1.36 1.366 1.455a10.976 10.976 0 010 21.781c-.75.094-1.366.698-1.366 1.454z" fill="#EF3124"/><circle cx="13.714" cy="13.714" r="2.675" stroke="#EE3124" stroke-width="2.65"/></symbol>
<symbol id="i-podeli-third-pay" viewBox="0 0 29 28" fill="none" xmlns="http://www.w3.org/2000/svg"><circle cx="14.643" cy="13.714" r="12.314" stroke="#E8E8E8" stroke-width="2.8"/><path d="M2.298 13.714c-.756 0-1.376.615-1.301 1.367A13.715 13.715 0 1016.01.068c-.753-.075-1.367.545-1.367 1.301 0 .756.615 1.36 1.366 1.455A10.976 10.976 0 113.752 15.08c-.094-.75-.698-1.366-1.454-1.366z" fill="#EF3124"/><circle cx="14.643" cy="13.714" r="2.675" stroke="#EE3124" stroke-width="2.65"/></symbol>
<symbol id="i-right-arrow" viewBox="0 0 15 25" fill="none" xmlns="http://www.w3.org/2000/svg"><path d="M2 24l10-11.262L2 2" stroke="#fff" stroke-width="3"/></symbol>
<symbol id="i-star-dark" viewBox="0 0 24 25" fill="none" xmlns="http://www.w3.org/2000/svg"><path d="M12 .22l.204 3.359a9 9 0 008.438 8.438L24 12.22l-3.358.204a9 9 0 00-8.438 8.437L12 24.221l-.204-3.359a9 9 0 00-8.438-8.437L0 12.22l3.358-.204a9 9 0 008.438-8.438L12 .221z" fill="currentColor"/></symbol>
</svg>